
<svg version="1.1" xmlns="http://www.w3.org/2000/svg" viewBox="330 110 750 500" preserveAspectRatio="xMidYMid meet">
<path d="M0 0 C9.8437411 4.70385481 18.19549507 10.90507516 23.99609375 20.24609375 C29.29866117 30.08023214 31.76873286 40.79678751 30.5625 51.9375 C28.71527818 62.01894792 25.6323572 70.16444113 18.81640625 77.92578125 C17.39317762 79.81535406 17.39317762 79.81535406 17.55859375 81.8671875 C19.02343528 84.88806692 21.19109112 86.76894311 23.625 89.0625 C25.30577151 90.6513359 26.96082072 92.26896296 28.5625 93.9375 C28.5625 94.5975 28.5625 95.2575 28.5625 95.9375 C26.78145282 97.53928593 24.93712722 99.07131926 23.0625 100.5625 C22.0415625 101.37976563 21.020625 102.19703125 19.96875 103.0390625 C19.1746875 103.66554688 18.380625 104.29203125 17.5625 104.9375 C13.31341664 103.33903531 10.74024261 100.1244608 7.8125 96.8125 C7.30589844 96.24917969 6.79929687 95.68585938 6.27734375 95.10546875 C5.03365468 93.72098469 3.79733695 92.32988512 2.5625 90.9375 C1.76070312 91.22625 0.95890625 91.515 0.1328125 91.8125 C-11.13626112 95.49219751 -23.24155248 96.90118956 -34.875 93.8125 C-45.97697006 89.71125677 -55.76047328 83.35052069 -62.75 73.6875 C-68.49413197 64.49688884 -70.77973312 53.90122292 -70.6484375 43.1875 C-69.91977762 31.96074032 -65.53418682 22.90695794 -59.25 13.75 C-52.44957126 6.94957126 -44.14242827 0.66543206 -34.66308594 -1.67871094 C-23.60075807 -3.58634361 -10.65371547 -3.81304204 0 0 Z " fill="#283546" transform="translate(958.4375,487.0625)" />
<path d="M0 0 C0 21.45 0 42.9 0 65 C-22.61757246 79.28478261 -22.61757246 79.28478261 -30.5625 84.25 C-31.53993164 84.86133789 -32.51736328 85.47267578 -33.52441406 86.10253906 C-39.05923959 89.55852402 -44.60628366 92.99372379 -50.16796875 96.40625 C-50.76158707 96.77063171 -51.35520538 97.13501343 -51.96681213 97.51043701 C-54.85044177 99.27989831 -57.73571231 101.04655273 -60.62329102 102.80957031 C-61.66026123 103.44475586 -62.69723145 104.07994141 -63.765625 104.734375 C-64.68118164 105.29350586 -65.59673828 105.85263672 -66.54003906 106.42871094 C-69.00424134 107.94623884 -69.00424134 107.94623884 -71.16381836 109.70166016 C-73 111 -73 111 -75.61328125 111.0390625 C-80.55908326 109.52166534 -84.74147317 106.98739778 -89.1875 104.375 C-91.22588635 103.19934771 -93.26498079 102.02492251 -95.3046875 100.8515625 C-96.38202148 100.22926758 -97.45935547 99.60697266 -98.56933594 98.96582031 C-104.01655241 95.84448619 -109.50525292 92.7987509 -114.99673462 89.75616455 C-116.79496645 88.75971581 -118.59228112 87.76163018 -120.3894043 86.76318359 C-125.6540704 83.80511086 -125.6540704 83.80511086 -131 81 C-131 80.34 -131 79.68 -131 79 C-130.40058594 78.65710938 -129.80117188 78.31421875 -129.18359375 77.9609375 C-118.00398674 71.50443615 -107.00992555 64.74019006 -96 58 C-94.91686523 57.33693848 -93.83373047 56.67387695 -92.71777344 55.99072266 C-80.36585829 48.42294882 -68.05001593 40.80442432 -55.81640625 33.046875 C-49.33035155 28.9367389 -42.8165293 24.87095234 -36.29956055 20.81005859 C-31.50193954 17.81958385 -26.70979225 14.82166674 -21.93873596 11.78892517 C-20.26605708 10.72610424 -18.59141577 9.66637384 -16.91674805 8.60668945 C-14.80020543 7.26686853 -12.68695303 5.92183263 -10.57739258 4.57104492 C-9.62759521 3.97138916 -8.67779785 3.3717334 -7.69921875 2.75390625 C-6.86221436 2.22095947 -6.02520996 1.6880127 -5.1628418 1.13891602 C-3 0 -3 0 0 0 Z " fill="#4080A4" transform="translate(845,135)" />
<path d="M0 0 C3.34038732 1.04074037 6.51057425 2.36345302 9.69873047 3.79125977 C10.36872574 4.08635941 11.03872101 4.38145905 11.72901917 4.6855011 C13.8681711 5.62881624 16.00421913 6.57892838 18.14013672 7.52954102 C20.23657908 8.45727561 22.33364491 9.38358112 24.43106079 10.30911255 C25.81503422 10.92097 27.19799711 11.53511846 28.57992554 12.15158081 C31.96243136 13.65637287 35.3528388 15.11859301 38.7890625 16.49682617 C39.75622948 16.89053154 39.75622948 16.89053154 40.74293518 17.29219055 C42.50028054 18.00352944 44.26351413 18.70027203 46.02709961 19.39599609 C48.70263672 20.84204102 48.70263672 20.84204102 50.08325195 23.01660156 C50.28764893 23.61899658 50.4920459 24.2213916 50.70263672 24.84204102 C50.04521484 25.2687207 49.38779297 25.69540039 48.71044922 26.13500977 C39.96725792 31.88087397 31.50757434 37.98231461 23.04931641 44.13647461 C19.27359183 46.8806706 15.48775423 49.61082383 11.70263672 52.34204102 C10.20258518 53.42530299 8.70258525 54.50863642 7.20263672 55.59204102 C-7.79736328 66.42537435 -22.79736328 77.25870768 -37.79736328 88.09204102 C-38.54058838 88.62885498 -39.28381348 89.16566895 -40.04956055 89.71875 C-41.54208169 90.79660088 -43.03475625 91.87423936 -44.52758789 92.95166016 C-48.39333196 95.74210821 -52.25593907 98.53675395 -56.11376953 101.33813477 C-56.90847656 101.9143457 -57.70318359 102.49055664 -58.52197266 103.08422852 C-60.02298294 104.17268041 -61.52306499 105.26241417 -63.02197266 106.35375977 C-66.65462956 108.9858249 -70.32136607 111.5463023 -74.05883789 114.02783203 C-74.85639999 114.55788345 -75.6539621 115.08793488 -76.47569275 115.63404846 C-77.07684402 116.032686 -77.6779953 116.43132355 -78.29736328 116.84204102 C-78.62328774 108.9316949 -78.87121844 101.02419568 -79.02273369 93.10877419 C-79.09550146 89.4319855 -79.19394066 85.75981966 -79.35351562 82.08569336 C-80.35311004 58.45215924 -80.35311004 58.45215924 -77.02005005 52.59893799 C-73.43967793 48.68292958 -69.12754355 46.85104831 -64.29736328 44.84204102 C-62.69202502 43.7613251 -61.11592975 42.63423757 -59.59033203 41.44360352 C-58.91107666 40.95126221 -58.23182129 40.4589209 -57.53198242 39.95166016 C-56.85643311 39.46173584 -56.18088379 38.97181152 -55.48486328 38.46704102 C-49.64039179 34.2350102 -43.76669451 30.04900621 -37.85986328 25.90454102 C-30.03371284 20.40747061 -22.32454539 14.7577168 -14.63720703 9.06860352 C-13.91388184 8.53783203 -13.19055664 8.00706055 -12.4453125 7.46020508 C-10.98419889 6.35947071 -9.54863547 5.22416706 -8.13769531 4.05981445 C-7.4491748 3.50068359 -6.7606543 2.94155273 -6.05126953 2.36547852 C-5.44742432 1.85678223 -4.8435791 1.34808594 -4.22143555 0.82397461 C-2.29736328 -0.15795898 -2.29736328 -0.15795898 0 0 Z " fill="#1E7997" transform="translate(642.29736328125,193.157958984375)" />
<path d="M0 0 C0 47.85 0 95.7 0 145 C-4.33206109 143.55597964 -7.23037528 142.45874163 -10.9921875 140.19921875 C-11.93352539 139.64016846 -12.87486328 139.08111816 -13.84472656 138.50512695 C-15.34471191 137.60540161 -15.34471191 137.60540161 -16.875 136.6875 C-26.57040247 130.94032588 -36.37683719 125.46145136 -46.33154297 120.17651367 C-47.27916504 119.67095947 -48.22678711 119.16540527 -49.203125 118.64453125 C-50.03489258 118.20471924 -50.86666016 117.76490723 -51.72363281 117.31176758 C-52.47483398 116.87888428 -53.22603516 116.44600098 -54 116 C-54.69758423 115.62318085 -55.39516846 115.24636169 -56.1138916 114.85812378 C-56.73630737 114.24494293 -57.35872314 113.63176208 -58 113 C-58.48101807 109.86787415 -58.48101807 109.86787415 -58.45410156 105.95825195 C-58.45468567 105.24580322 -58.45526978 104.53335449 -58.45587158 103.79931641 C-58.45308548 101.44514181 -58.42197113 99.09223453 -58.390625 96.73828125 C-58.38316442 95.10589795 -58.37747062 93.47350569 -58.37347412 91.84111023 C-58.35820321 87.54514833 -58.31890933 83.2497276 -58.2746582 78.95397949 C-58.23373662 74.57030559 -58.21546979 70.18654423 -58.1953125 65.80273438 C-58.15241605 57.2015746 -58.08414766 48.60085462 -58 40 C-56.95086426 39.28207275 -55.90172852 38.56414551 -54.82080078 37.82446289 C-47.44835823 32.77247369 -40.09467281 27.70673172 -32.875 22.4375 C-31.3648247 21.34081338 -29.85440504 20.24446319 -28.34375 19.1484375 C-27.61542969 18.61959961 -26.88710938 18.09076172 -26.13671875 17.54589844 C-22.32413644 14.7875265 -18.48762174 12.06275461 -14.65087891 9.33813477 C-10.84976178 6.63103902 -7.12022602 3.84678656 -3.453125 0.9609375 C-2 0 -2 0 0 0 Z " fill="#2D8AA8" transform="translate(700,224)" />
<path d="M0 0 C0 21.45 0 42.9 0 65 C-17.19367231 76.4624482 -17.19367231 76.4624482 -23.69921875 80.7265625 C-24.42639603 81.20394867 -25.1535733 81.68133484 -25.90278625 82.17318726 C-28.1640274 83.6576286 -30.42571019 85.14139481 -32.6875 86.625 C-50.61052061 98.24719155 -50.61052061 98.24719155 -68.18359375 110.3828125 C-68.78300781 110.58648437 -69.38242187 110.79015625 -70 111 C-73.95534878 109.66045984 -77.51625899 107.70631265 -81.1640625 105.69140625 C-81.75003708 105.36845078 -82.33601166 105.0454953 -82.93974304 104.7127533 C-84.83660284 103.66584159 -86.73090594 102.61440608 -88.625 101.5625 C-89.92861278 100.84111551 -91.23224243 100.11976151 -92.53588867 99.3984375 C-102.76581557 93.72789656 -112.91639325 87.92710135 -123 82 C-123 81.34 -123 80.68 -123 80 C-122.46785889 79.66718018 -121.93571777 79.33436035 -121.38745117 78.99145508 C-106.30347794 69.52136504 -91.49765615 59.67121573 -76.75 49.6875 C-63.18837787 40.50687821 -49.59948203 31.38085556 -35.87280273 22.44873047 C-30.21339062 18.76455118 -24.57202856 15.05788886 -18.96875 11.2890625 C-18.4023027 10.90859268 -17.83585541 10.52812286 -17.25224304 10.13612366 C-14.57401164 8.33648094 -11.89930188 6.53196246 -9.22973633 4.71948242 C-8.30443115 4.09662354 -7.37912598 3.47376465 -6.42578125 2.83203125 C-5.61536377 2.28264893 -4.80494629 1.7332666 -3.9699707 1.16723633 C-2 0 -2 0 0 0 Z " fill="#154A71" transform="translate(766,342)" />
<path d="M0 0 C2.12522499 3.18783749 3.5702496 6.45549455 5.0546875 9.96484375 C5.35248611 10.66208054 5.65028473 11.35931732 5.95710754 12.0776825 C6.9325194 14.36311377 7.90373089 16.65030545 8.875 18.9375 C9.54891987 20.51820081 10.22315764 22.09876612 10.89770508 23.67919922 C12.26962059 26.89442869 13.6400724 30.11027548 15.00927734 33.32666016 C17.8921077 40.09702006 20.78943023 46.86115317 23.6875 53.625 C24.16751465 54.74769287 24.6475293 55.87038574 25.14208984 57.02709961 C27.71566342 63.03898584 30.32261147 69.03357406 33 75 C35.49587632 71.87770033 37.32431098 68.64465601 39.14453125 65.08984375 C39.73943359 63.93419922 40.33433594 62.77855469 40.94726562 61.58789062 C41.56922854 60.37120523 42.1909724 59.15440783 42.8125 57.9375 C47.10310719 49.56505486 51.44655522 41.23312326 56 33 C56.33 33 56.66 33 57 33 C57 57.42 57 81.84 57 107 C48.42 112.61 39.84 118.22 31 124 C22.82194138 129.46539289 22.82194138 129.46539289 14.65625 134.94921875 C9.85345724 138.09601501 4.92361843 141.04582894 0 144 C0 96.48 0 48.96 0 0 Z " fill="#2F8BA2" transform="translate(709,224)" />
<path d="M0 0 C1.25067261 0.01135986 1.25067261 0.01135986 2.52661133 0.02294922 C11.09982522 0.25121281 17.86158926 2.32595607 25 7.125 C29.2425772 10.57644088 32.05509228 14.68112467 34.6875 19.4375 C35.02910156 20.04078125 35.37070312 20.6440625 35.72265625 21.265625 C39.01226215 28.30385158 37.6875 34.14682615 37.6875 42.4375 C19.2075 42.4375 0.7275 42.4375 -18.3125 42.4375 C-15.14300219 50.75110843 -15.14300219 50.75110843 -9.3125 55.4375 C-4.01270038 58.46595693 0.52258817 58.94980934 6.609375 58.796875 C11.34611513 58.24385458 15.54254545 56.78919148 19.6875 54.4375 C20.69223926 53.44226182 21.6932802 52.44324698 22.6875 51.4375 C23.3475 51.4375 24.0075 51.4375 24.6875 51.4375 C26.34375 53.08203125 26.34375 53.08203125 28.1875 55.25 C28.7959375 55.95769531 29.404375 56.66539062 30.03125 57.39453125 C31.6875 59.4375 31.6875 59.4375 33.6875 62.4375 C27.28989184 68.79936734 21.07323822 72.26242984 12.25 74.1875 C0.85297794 74.98729102 -9.41358897 74.42816341 -19.625 68.75 C-26.76435945 64.09738373 -31.2969659 58.43531371 -34.5859375 50.61328125 C-37.19300088 42.80610759 -37.50372124 33.52911991 -35.62890625 25.515625 C-32.37673259 16.82516925 -27.06555808 10.66790721 -19.8515625 4.98046875 C-13.41283289 1.06770229 -7.47741762 -0.09538874 0 0 Z " fill="#293546" transform="translate(528.3125,507.5625)" />
<path d="M0 0 C7.02536859 3.05614066 12.7184047 7.26274908 16.90234375 13.7109375 C22.36104696 22.80877619 21.90234375 29.42810212 21.90234375 40.7109375 C3.42234375 40.7109375 -15.05765625 40.7109375 -34.09765625 40.7109375 C-30.01109619 49.96086249 -30.01109619 49.96086249 -22.96484375 54.87109375 C-17.44800668 57.35251628 -12.04579274 57.24511481 -6.09765625 56.7109375 C-0.85663462 55.28797195 3.08899589 53.56849809 6.90234375 49.7109375 C7.56234375 49.7109375 8.22234375 49.7109375 8.90234375 49.7109375 C10.55859375 51.35546875 10.55859375 51.35546875 12.40234375 53.5234375 C13.01078125 54.23113281 13.61921875 54.93882812 14.24609375 55.66796875 C15.90234375 57.7109375 15.90234375 57.7109375 17.90234375 60.7109375 C11.50473559 67.07280484 5.28808197 70.53586734 -3.53515625 72.4609375 C-15.24613448 73.28276053 -25.55466195 72.69157094 -35.91015625 66.5859375 C-43.0480719 61.65933578 -47.45765518 56.07143511 -50.53515625 47.9609375 C-52.9181865 39.88739535 -53.08000237 31.77445218 -51.09765625 23.5859375 C-48.68879178 16.67452261 -44.40027515 10.58684635 -38.890625 5.7890625 C-28.03446768 -1.89200152 -12.70175625 -4.61368463 0 0 Z " fill="#293546" transform="translate(767.09765625,509.2890625)" />
<path d="M0 0 C1.16692383 -0.0309375 1.16692383 -0.0309375 2.35742188 -0.0625 C9.18574294 -0.10806011 14.41869768 1.30730753 20.10546875 5.125 C26.0816624 10.42850628 30.40887738 15.35809718 32.3125 23.25 C33.42870761 31.87678102 33.16935996 40.28400047 29.48046875 48.26953125 C28.22994952 50.38997689 26.83081725 52.31403674 25.3125 54.25 C21.42852311 52.69997253 19.28270381 50.24523379 16.5625 47.125 C15.76328125 46.21492187 14.9640625 45.30484375 14.140625 44.3671875 C13.53734375 43.66851563 12.9340625 42.96984375 12.3125 42.25 C8.65189179 42.83536753 6.76714836 44.333239 4.0625 46.8125 C3.35609375 47.45316406 2.6496875 48.09382812 1.921875 48.75390625 C1.12523437 49.49447266 1.12523437 49.49447266 0.3125 50.25 C4.23133395 55.66216846 4.23133395 55.66216846 8.6875 60.625 C9.22375 61.16125 9.76 61.6975 10.3125 62.25 C10.3125 62.91 10.3125 63.57 10.3125 64.25 C4.13217848 66.09062844 -3.0841013 66.24404102 -9.29296875 64.53125 C-11.53818207 63.57288012 -13.5925372 62.50121551 -15.6875 61.25 C-16.62529297 60.7240625 -16.62529297 60.7240625 -17.58203125 60.1875 C-22.65982957 57.00143047 -25.98288847 52.55874214 -28.6875 47.25 C-31.61998258 38.8829166 -32.03773051 29.09560874 -30.03515625 20.42578125 C-27.47844522 14.13824725 -22.99787474 8.70235482 -17.5625 4.67578125 C-11.67772996 0.90044165 -6.98679042 0.04518539 0 0 Z " fill="#F3F3F0" transform="translate(937.6875,500.75)" />
<path d="M0 0 C0.94294922 -0.020625 1.88589844 -0.04125 2.85742188 -0.0625 C10.67856345 -0.10550284 17.51763964 1.20077541 24.4375 4.9375 C25.05625 5.370625 25.675 5.80375 26.3125 6.25 C25.70504603 11.10963179 23.58491033 14.9905518 21.3125 19.25 C19.30787605 18.7942025 17.44360759 18.30610591 15.55078125 17.49609375 C10.21323632 15.25497448 5.21142462 14.95263361 -0.5 14.9375 C-1.24145264 14.93226318 -1.98290527 14.92702637 -2.74682617 14.92163086 C-6.52981893 14.97022449 -9.48035109 15.13715386 -12.6875 17.25 C-13.0175 19.56 -13.3475 21.87 -13.6875 24.25 C-10.75635402 26.7340935 -8.62651757 27.69859132 -4.8359375 28.2421875 C-3.90136719 28.39042969 -2.96679688 28.53867187 -2.00390625 28.69140625 C-0.06703024 28.97692184 1.87046381 29.25828054 3.80859375 29.53515625 C11.32137866 30.73761293 18.66273057 32.74986301 24.28955078 38.14599609 C26.28633431 40.40229383 27.9638124 42.5526248 29.3125 45.25 C29.75579236 50.39048644 29.63787642 55.08247286 28.25 60.0625 C25.23023789 65.03049572 21.38945606 67.95767179 16.5 71 C4.53443021 75.69238031 -8.01061072 75.12721777 -20.36328125 72.25 C-25.12968303 70.81615881 -29.3963972 68.75149541 -33.6875 66.25 C-33.10642368 62.4897015 -32.03550504 59.71964968 -30.125 56.4375 C-29.66996094 55.64730469 -29.21492187 54.85710938 -28.74609375 54.04296875 C-28.39675781 53.45128906 -28.04742188 52.85960937 -27.6875 52.25 C-26.81351563 52.683125 -25.93953125 53.11625 -25.0390625 53.5625 C-14.87917497 58.27709096 -5.82560362 59.41068414 5.3125 58.25 C8.20508325 57.33463206 8.20508325 57.33463206 10.3125 56.25 C10.6425 54.27 10.9725 52.29 11.3125 50.25 C6.27961024 46.30263549 1.80447027 45.27635643 -4.4375 44.25 C-21.62093009 41.07530768 -21.62093009 41.07530768 -26.57421875 36.51171875 C-28.61910741 34.20943152 -30.30976512 32.00546977 -31.6875 29.25 C-32.62212979 17.29899609 -32.62212979 17.29899609 -30.0625 11.6875 C-25.18662652 6.68331406 -20.26137449 2.33926409 -13.31323242 0.68457031 C-8.8876743 -0.0478791 -4.47667905 0.02398756 0 0 Z " fill="#283546" transform="translate(677.6875,507.75)" />
<path d="M0 0 C0.98154053 0.00346436 1.96308105 0.00692871 2.97436523 0.01049805 C11.19757692 0.13410915 18.17402191 1.12154101 25.5 5 C26.098125 5.433125 26.69625 5.86625 27.3125 6.3125 C26.70504603 11.17213179 24.58491033 15.0530518 22.3125 19.3125 C21.63703125 19.10753906 20.9615625 18.90257812 20.265625 18.69140625 C19.37359375 18.42199219 18.4815625 18.15257812 17.5625 17.875 C16.68078125 17.60816406 15.7990625 17.34132813 14.890625 17.06640625 C14.03984375 16.81761719 13.1890625 16.56882812 12.3125 16.3125 C11.40564453 16.02632812 11.40564453 16.02632812 10.48046875 15.734375 C7.1276958 15.08194351 3.77804223 15.04653203 0.375 15 C-0.32818359 14.97099609 -1.03136719 14.94199219 -1.75585938 14.91210938 C-5.56324691 14.86572134 -7.49737038 15.18467554 -10.69140625 17.33203125 C-11.35011719 17.98558594 -12.00882813 18.63914062 -12.6875 19.3125 C-12.3575 21.2925 -12.0275 23.2725 -11.6875 25.3125 C-6.80234072 27.59688148 -2.27586608 28.91935622 3.0625 29.75 C19.30308372 32.61421767 19.30308372 32.61421767 24.50390625 37.27734375 C26.77829494 39.81822647 28.78475505 42.25701009 30.3125 45.3125 C30.85537296 50.59883674 30.9719329 55.71585766 28.75 60.625 C25.97350049 65.37914652 22.2423812 68.83602443 17.328125 71.3125 C7.01525985 75.46962394 -5.36890965 75.55168744 -16.12890625 73.078125 C-21.13558211 71.57994413 -26.07213174 69.77354289 -30.6875 67.3125 C-31.3475 66.3225 -32.0075 65.3325 -32.6875 64.3125 C-30.7075 60.3525 -28.7275 56.3925 -26.6875 52.3125 C-23.69270833 53.58203125 -20.69791667 54.8515625 -17.703125 56.12109375 C-12.47941826 58.1848639 -7.84475711 58.49522224 -2.25 58.5 C-1.49912109 58.51224609 -0.74824219 58.52449219 0.02539062 58.53710938 C4.24897648 58.5482534 7.45553716 58.2524833 11.3125 56.3125 C12.07966851 53.46171909 12.07966851 53.46171909 12.3125 50.3125 C11.22764818 48.58065472 11.22764818 48.58065472 9.3125 47.3125 C6.65524115 46.41623235 6.65524115 46.41623235 3.61328125 45.84765625 C2.48599609 45.60466797 1.35871094 45.36167969 0.19726562 45.11132812 C-0.98158203 44.86833984 -2.16042969 44.62535156 -3.375 44.375 C-21.43503402 40.65055719 -21.43503402 40.65055719 -27.0625 34.875 C-30.34448979 29.69955455 -31.25598273 25.23838648 -31.125 19.1640625 C-30.37042634 14.24585916 -28.0734983 10.87784143 -24.6875 7.3125 C-17.12028697 1.17164657 -9.50974002 -0.05374547 0 0 Z " fill="#293546" transform="translate(606.6875,507.6875)" />
<path d="M0 0 C26.4 0 52.8 0 80 0 C80 4.95 80 9.9 80 15 C69.77 15 59.54 15 49 15 C49 41.4 49 67.8 49 95 C43.06 95 37.12 95 31 95 C31 68.6 31 42.2 31 15 C20.77 15 10.54 15 0 15 C0 10.05 0 5.1 0 0 Z " fill="#283545" transform="translate(420,486)" />
<path d="M0 0 C0 11.88 0 23.76 0 36 C-16.10981532 46.35630985 -16.10981532 46.35630985 -23.75 51.0625 C-24.61052979 51.59415771 -25.47105957 52.12581543 -26.35766602 52.67358398 C-31.53982064 55.87323274 -36.72830138 59.06255631 -41.91796875 62.25 C-43.09603242 62.97387081 -44.27409233 63.69774775 -45.45214844 64.42163086 C-47.73183869 65.8223781 -50.01259568 67.22133628 -52.29394531 68.61938477 C-58.5309929 72.43437412 -58.5309929 72.43437412 -64.62890625 76.46484375 C-67 78 -67 78 -69 78 C-69 66.12 -69 54.24 -69 42 C-63.1528125 38.41125 -63.1528125 38.41125 -57.1875 34.75 C-49.18450952 29.82930642 -41.19044287 24.89621333 -33.25 19.875 C-32.51491211 19.41029297 -31.77982422 18.94558594 -31.02246094 18.46679688 C-26.67433971 15.71129048 -22.3404125 12.93435978 -18.01171875 10.1484375 C-17.00141602 9.5002002 -15.99111328 8.85196289 -14.95019531 8.18408203 C-12.97431885 6.91561417 -11.00091692 5.64328167 -9.03027344 4.36669922 C-8.14243164 3.79709473 -7.25458984 3.22749023 -6.33984375 2.640625 C-5.54956787 2.13047852 -4.75929199 1.62033203 -3.94506836 1.09472656 C-2 0 -2 0 0 0 Z " fill="#1B7295" transform="translate(845,211)" />
<path d="M0 0 C2.22646984 2.92016841 4.11600004 5.83692116 5.8984375 9.05078125 C6.45345947 10.04722656 7.00848145 11.04367187 7.58032227 12.0703125 C8.17256592 13.14023437 8.76480957 14.21015625 9.375 15.3125 C10.64136909 17.59015408 11.90830838 19.86749121 13.17578125 22.14453125 C13.81596191 23.29518066 14.45614258 24.44583008 15.11572266 25.63134766 C16.84660736 28.72576941 18.59506118 31.8090208 20.35546875 34.88671875 C26.47463957 45.58854893 32.37793595 56.36721989 37.98461914 67.34765625 C43.45286102 78.02204563 49.24722274 88.4532417 55 99 C55.33 80.19 55.66 61.38 56 42 C56.33 42 56.66 42 57 42 C57 62.46 57 82.92 57 104 C48.81672498 99.90836249 40.81500435 95.89662472 32.9375 91.3125 C31.14984321 90.28107038 29.3620793 89.2498264 27.57421875 88.21875 C26.66720215 87.69410156 25.76018555 87.16945313 24.82568359 86.62890625 C21.89612599 84.94012032 18.9591038 83.2650373 16.01953125 81.59375 C15.05345947 81.04420654 14.0873877 80.49466309 13.09204102 79.9284668 C11.22451163 78.86660124 9.35652388 77.80554135 7.48803711 76.74536133 C6.65151611 76.2686499 5.81499512 75.79193848 4.953125 75.30078125 C4.21223633 74.87966064 3.47134766 74.45854004 2.70800781 74.0246582 C1 73 1 73 0 72 C-0.09436529 69.76070114 -0.11742327 67.5183825 -0.11352539 65.27709961 C-0.11367142 64.5746965 -0.11381744 63.8722934 -0.1139679 63.14860535 C-0.11326872 60.81648722 -0.10547617 58.484448 -0.09765625 56.15234375 C-0.09579208 54.53951562 -0.09436818 52.92668693 -0.09336853 51.31385803 C-0.08954323 47.06084643 -0.07971285 42.80786876 -0.06866455 38.55487061 C-0.05845069 34.2182257 -0.05387096 29.88157533 -0.04882812 25.54492188 C-0.03809059 17.02993231 -0.02101403 8.51497037 0 0 Z " fill="#114D72" transform="translate(642,265)" />
<path d="M0 0 C0 21.45 0 42.9 0 65 C-0.99 65.495 -0.99 65.495 -2 66 C-2.99 65.505 -2.99 65.505 -4 65 C-4 64.01 -4 63.02 -4 62 C-4.81154541 61.75757568 -5.62309082 61.51515137 -6.45922852 61.26538086 C-10.71374297 59.74492658 -14.63033146 57.79969102 -18.65234375 55.75390625 C-19.47070206 55.34212631 -20.28906036 54.93034637 -21.13221741 54.50608826 C-23.73592132 53.19537098 -26.33687895 51.87932202 -28.9375 50.5625 C-31.53488631 49.24993579 -34.13286616 47.93858313 -36.73207092 46.62962341 C-38.34489321 45.81715097 -39.95664218 45.00254312 -41.56712341 44.18544006 C-45.98616966 41.95644019 -50.42923113 39.89947646 -55 38 C-55 37.01 -55 36.02 -55 35 C-54.2471875 34.50822266 -53.494375 34.01644531 -52.71875 33.50976562 C-49.80315509 31.60436774 -46.88811268 29.69813105 -43.97354126 27.79116821 C-42.66065976 26.93222957 -41.34765165 26.07348441 -40.03451538 25.2149353 C-32.932703 20.57052018 -25.84205096 15.91161802 -18.80078125 11.17578125 C-18.24494354 10.80246674 -17.68910583 10.42915222 -17.11642456 10.04452515 C-14.48694323 8.27780343 -11.86111397 6.50602811 -9.24023438 4.7265625 C-8.31146484 4.10136719 -7.38269531 3.47617187 -6.42578125 2.83203125 C-5.61536377 2.28264893 -4.80494629 1.7332666 -3.9699707 1.16723633 C-2 0 -2 0 0 0 Z " fill="#1B89A4" transform="translate(766,342)" />
<path d="M0 0 C0 47.85 0 95.7 0 145 C-0.33 145 -0.66 145 -1 145 C-1.33 98.8 -1.66 52.6 -2 5 C-13.92944089 33.62761519 -13.92944089 33.62761519 -25.6796875 62.32421875 C-28.36572859 68.92110939 -31.14190354 75.47582201 -34 82 C-36.66605172 79.61074877 -38.18255753 77.10132975 -39.85546875 73.94921875 C-40.39212158 72.94632812 -40.92877441 71.9434375 -41.48168945 70.91015625 C-42.04460693 69.84667969 -42.60752441 68.78320312 -43.1875 67.6875 C-44.3503177 65.5136566 -45.51437687 63.34047681 -46.6796875 61.16796875 C-47.24526367 60.11270996 -47.81083984 59.05745117 -48.39355469 57.97021484 C-51.48687701 52.25085932 -54.72629932 46.61770992 -58 41 C-53.7309896 37.50259855 -49.29328158 34.27914911 -44.8125 31.0625 C-43.19790599 29.89975441 -41.58332297 28.73699356 -39.96875 27.57421875 C-39.14503906 26.9817334 -38.32132813 26.38924805 -37.47265625 25.77880859 C-33.58346813 22.98095861 -29.69765697 20.17844371 -25.8125 17.375 C-25.07491455 16.84374512 -24.3373291 16.31249023 -23.57739258 15.76513672 C-19.90168506 13.11363395 -16.2411372 10.44448174 -12.60546875 7.73828125 C-11.91283936 7.22410645 -11.22020996 6.70993164 -10.5065918 6.18017578 C-9.19896194 5.20744809 -7.89427674 4.23074543 -6.59301758 3.24951172 C-2.22149083 0 -2.22149083 0 0 0 Z " fill="#78CBCE" transform="translate(700,224)" />
<path d="M0 0 C12.3902423 5.95235153 24.32274153 12.61216262 36.25146484 19.43554688 C38.81232944 20.89317881 41.38153639 22.33403762 43.95703125 23.765625 C44.69953125 24.1788501 45.44203125 24.5920752 46.20703125 25.01782227 C47.57159804 25.77589734 48.93741023 26.5317367 50.3046875 27.28491211 C52.83276056 28.69398523 54.94193419 29.94193419 57 32 C57.24050903 35.04983521 57.24050903 35.04983521 57.22705078 39.02001953 C57.22734283 39.74207581 57.22763489 40.46413208 57.22793579 41.20806885 C57.22654008 43.59977142 57.21096783 45.99116421 57.1953125 48.3828125 C57.19158322 50.0390506 57.18873585 51.69529089 57.18673706 53.35153198 C57.17909389 57.7147224 57.1594396 62.07778007 57.1373291 66.44091797 C57.11688535 70.89158329 57.1077385 75.34227003 57.09765625 79.79296875 C57.07619429 88.52870681 57.04205018 97.2643369 57 106 C56.67 106 56.34 106 56 106 C55.67 82.57 55.34 59.14 55 35 C50.05 44.57 45.1 54.14 40 64 C37.69 67.96 35.38 71.92 33 76 C29.758116 72.758116 28.33440796 69.66029841 26.59375 65.52734375 C26.27234543 64.78006516 25.95094086 64.03278656 25.61979675 63.26286316 C24.57291784 60.82398369 23.53636777 58.38086226 22.5 55.9375 C21.78159118 54.25805028 21.06259363 52.57885228 20.34301758 50.89990234 C18.21893048 45.93739211 16.10837756 40.96920029 14 36 C13.4081327 34.60721987 12.81617859 33.21447663 12.22412109 31.82177734 C9.47647038 25.35584782 6.7357696 18.88704043 4.02099609 12.40722656 C3.37644388 10.88755062 2.71950645 9.37301441 2.04541016 7.86621094 C0.7796854 5.03694383 0 3.14346727 0 0 Z " fill="#7FD9C9" transform="translate(710,224)" />
<path d="M0 0 C3.40469012 1.36187605 6.38434492 2.66349286 9.5625 4.3984375 C10.43213379 4.87216797 11.30176758 5.34589844 12.19775391 5.83398438 C13.58486572 6.59678711 13.58486572 6.59678711 15 7.375 C15.9595459 7.90158203 16.9190918 8.42816406 17.90771484 8.97070312 C20.94186281 10.64109446 23.97175527 12.31893222 27 14 C27.99547852 14.55204102 28.99095703 15.10408203 30.01660156 15.67285156 C32.89126548 17.27283771 35.75930657 18.88401126 38.625 20.5 C39.50671875 20.99161621 40.3884375 21.48323242 41.296875 21.98974609 C45.36096216 24.29968278 48.92278389 26.39574687 52 30 C38.16260241 39.56435103 24.20925066 48.92798932 10.125 58.125 C8.7942041 58.99680908 8.7942041 58.99680908 7.43652344 59.88623047 C6.61442383 60.42135254 5.79232422 60.95647461 4.9453125 61.5078125 C4.20812988 61.98879395 3.47094727 62.46977539 2.71142578 62.96533203 C1 64 1 64 0 64 C0 42.88 0 21.76 0 0 Z " fill="#214578" transform="translate(642,348)" />
<path d="M0 0 C0 5.28 0 10.56 0 16 C-2.475 16.0928125 -2.475 16.0928125 -5 16.1875 C-9.89732052 16.64760862 -13.32268194 17.63422661 -17.34375 20.46875 C-20.82401113 23.68634991 -22.51049277 27.53147831 -24 32 C-24.11235161 33.33451263 -24.17575649 34.67354389 -24.20532227 36.01245117 C-24.22526749 36.81305466 -24.24521271 37.61365814 -24.26576233 38.43852234 C-24.29083107 39.72772331 -24.29083107 39.72772331 -24.31640625 41.04296875 C-24.33718735 41.9265657 -24.35796844 42.81016266 -24.37937927 43.72053528 C-24.44475754 46.54277785 -24.50370528 49.36511335 -24.5625 52.1875 C-24.60569637 54.10092106 -24.64931102 56.01433273 -24.69335938 57.92773438 C-24.80042695 62.61839437 -24.90172752 67.30914783 -25 72 C-30.61 72 -36.22 72 -42 72 C-42 48.57 -42 25.14 -42 1 C-36.72 1 -31.44 1 -26 1 C-26 3.97 -26 6.94 -26 10 C-25.34 10 -24.68 10 -24 10 C-23.75121094 9.39542969 -23.50242187 8.79085937 -23.24609375 8.16796875 C-21.80202545 5.65556152 -20.53864187 4.77420758 -18.0625 3.3125 C-17.37285156 2.89613281 -16.68320312 2.47976563 -15.97265625 2.05078125 C-10.75719666 -0.72735465 -5.78212947 -0.06802505 0 0 Z " fill="#253143" transform="translate(845,508)" />
<path d="M0 0 C4.30633959 0.65902439 8.04876739 2.1814198 11.99609375 3.94921875 C13.00108665 4.39186821 13.00108665 4.39186821 14.02638245 4.84346008 C16.16553438 5.78677523 18.30158241 6.73688736 20.4375 7.6875 C22.53394236 8.61523459 24.63100819 9.5415401 26.72842407 10.46707153 C28.1123975 11.07892898 29.4953604 11.69307744 30.87728882 12.30953979 C34.25979465 13.81433186 37.65020208 15.276552 41.08642578 16.65478516 C42.05359276 17.04849052 42.05359276 17.04849052 43.04029846 17.45014954 C44.79764382 18.16148843 46.56087741 18.85823101 48.32446289 19.55395508 C51 21 51 21 52.38061523 23.17456055 C52.58501221 23.77695557 52.78940918 24.37935059 53 25 C52.0615625 25.11730469 51.123125 25.23460937 50.15625 25.35546875 C45.20909467 26.06871649 40.36722176 27.18648334 35.5 28.3125 C34.43007813 28.55814697 33.36015625 28.80379395 32.2578125 29.05688477 C24.11131131 30.96042256 16.00637803 33.00983875 7.90625 35.1015625 C6.8483728 35.37427475 5.79049561 35.646987 4.70056152 35.92796326 C-0.67837146 37.3161267 -6.05460805 38.71379617 -11.42773438 40.12426758 C-13.43093759 40.64424332 -15.43419062 41.16402719 -17.4375 41.68359375 C-18.37283569 41.93223175 -19.30817139 42.18086975 -20.27185059 42.43704224 C-21.55847595 42.76875931 -21.55847595 42.76875931 -22.87109375 43.10717773 C-23.62318115 43.30447983 -24.37526855 43.50178192 -25.15014648 43.70506287 C-25.76059814 43.80239212 -26.3710498 43.89972137 -27 44 C-27.66 43.67 -28.32 43.34 -29 43 C-28.45214844 42.24460938 -27.90429688 41.48921875 -27.33984375 40.7109375 C-19.34132159 29.62387707 -11.66055575 18.32223492 -4 7 C-3.34016113 6.03320312 -3.34016113 6.03320312 -2.66699219 5.046875 C-0.79763959 2.71995614 -0.79763959 2.71995614 0 0 Z " fill="#59CCC2" transform="translate(640,193)" />
<path d="M0 0 C0.721875 0.226875 1.44375 0.45375 2.1875 0.6875 C2.38384033 1.72567871 2.58018066 2.76385742 2.7824707 3.83349609 C3.52078613 7.72970648 4.26611021 11.62455012 5.01342773 15.51904297 C5.33431571 17.19641925 5.65336787 18.87414791 5.97045898 20.55224609 C8.21505187 32.74982259 8.21505187 32.74982259 11.64257812 44.65429688 C12.62908574 48.33513712 12.37056301 51.90419784 12.1875 55.6875 C3.28298586 51.49376108 -5.23445514 46.67448962 -13.78369141 41.80908203 C-23.40555742 36.33524675 -33.09757677 30.99402487 -42.8125 25.6875 C-42.8125 25.0275 -42.8125 24.3675 -42.8125 23.6875 C-42.21308594 23.34460938 -41.61367188 23.00171875 -40.99609375 22.6484375 C-30.65719077 16.67746366 -20.48752242 10.42823608 -10.30102539 4.20214844 C-9.47981201 3.70231445 -8.65859863 3.20248047 -7.8125 2.6875 C-6.98548584 2.10774414 -6.15847168 1.52798828 -5.30639648 0.93066406 C-2.8125 -0.3125 -2.8125 -0.3125 0 0 Z " fill="#216798" transform="translate(756.8125,190.3125)" />
<path d="M0 0 C0.33 0 0.66 0 1 0 C1.02505615 1.3096875 1.0501123 2.619375 1.07592773 3.96875 C1.17126603 8.90404347 1.27115911 13.83923669 1.37231445 18.77441406 C1.4151921 20.89613473 1.45689195 23.01787958 1.49731445 25.13964844 C1.71078583 36.30341068 1.96477357 47.4287985 2.84375 58.5625 C3.10952019 64.40944429 2.59103728 70.18055601 2 76 C2.99 76 3.98 76 5 76 C5 74.35 5 72.7 5 71 C6.485 70.505 6.485 70.505 8 70 C8.71535612 68.01689383 9.36703895 66.01092137 10 64 C11.5729455 60.54862152 13.29674292 57.17369345 15.0078125 53.7890625 C15.49329559 52.82092621 15.97877869 51.85278992 16.47897339 50.85531616 C18.02389017 47.77663915 19.57435956 44.70079749 21.125 41.625 C22.17614932 39.53273696 23.2269347 37.44029104 24.27734375 35.34765625 C26.84734982 30.22964449 29.42191525 25.11394663 32 20 C33.32 20 34.64 20 36 20 C37.53515625 21.4765625 37.53515625 21.4765625 39.0625 23.625 C41.28252847 26.66242458 43.51324215 29.67163305 45.86328125 32.609375 C46.36013428 33.23118652 46.8569873 33.85299805 47.36889648 34.49365234 C48.36267315 35.73502745 49.35824258 36.97496977 50.35571289 38.21337891 C52.40563931 40.79717417 53.94820675 42.84462024 55 46 C55.66 46 56.32 46 57 46 C56.67 46.99 56.34 47.98 56 49 C53.90310136 50.46288061 51.82455985 51.7696997 49.625 53.0625 C41.68831376 57.86961926 33.95745703 62.96227742 26.25 68.125 C25.40057831 68.69337082 25.40057831 68.69337082 24.53399658 69.27322388 C19.53088476 72.62096479 14.52796274 75.96896304 9.53710938 79.33496094 C7.90225586 80.43372559 7.90225586 80.43372559 6.234375 81.5546875 C5.25178711 82.21710449 4.26919922 82.87952148 3.25683594 83.56201172 C1 85 1 85 0 85 C0 56.95 0 28.9 0 0 Z " fill="#1C5781" transform="translate(709,283)" />
<path d="M0 0 C0 21.45 0 42.9 0 65 C-0.33 65 -0.66 65 -1 65 C-1.33 44.21 -1.66 23.42 -2 2 C-9.41102729 13.13450511 -9.41102729 13.13450511 -16.81376648 24.27453613 C-17.73048582 25.64604687 -18.65499678 27.01236525 -19.58503723 28.37487793 C-22.08943809 32.05520299 -24.45106182 35.7413969 -26.62255859 39.62890625 C-31.44991203 47.98030325 -31.44991203 47.98030325 -35 51 C-39.73415216 52.59084141 -43.93296873 52.56692373 -48.82470703 52.15643311 C-51.80032394 51.94244584 -54.74978463 52.00718183 -57.73071289 52.06069946 C-61.48726521 52.12187731 -65.24317903 52.08394674 -69 52.0625 C-70.5651027 52.0574649 -72.13020701 52.05290562 -73.6953125 52.04882812 C-77.46358266 52.03800474 -81.23177257 52.02085616 -85 52 C-81.63458003 49.21619168 -78.22252027 46.79994562 -74.4921875 44.53125 C-73.43322266 43.88414062 -72.37425781 43.23703125 -71.28320312 42.5703125 C-70.15849609 41.88710937 -69.03378906 41.20390625 -67.875 40.5 C-65.50665488 39.05397312 -63.13996295 37.60525251 -60.7734375 36.15625 C-60.1869342 35.79748779 -59.60043091 35.43872559 -58.99615479 35.0690918 C-54.13459168 32.09179597 -49.3098517 29.05989458 -44.5 26 C-35.6600302 20.3812342 -26.73859006 14.8973184 -17.8046875 9.4296875 C-16.74894531 8.78257812 -15.69320312 8.13546875 -14.60546875 7.46875 C-13.61853027 6.86417969 -12.6315918 6.25960937 -11.61474609 5.63671875 C-9.5075927 4.31773123 -7.46043736 2.95732314 -5.42578125 1.53125 C-3 0 -3 0 0 0 Z " fill="#7BD2C6" transform="translate(845,135)" />
<path d="M0 0 C4.86967672 0.53928651 8.87980463 1.55991544 13.37109375 3.50390625 C15.09682617 4.24350586 15.09682617 4.24350586 16.85742188 4.99804688 C18.62956055 5.77245117 18.62956055 5.77245117 20.4375 6.5625 C21.64599609 7.08263672 22.85449219 7.60277344 24.09960938 8.13867188 C27.06974085 9.41829374 30.03629326 10.70558415 33 12 C33 12.99 33 13.98 33 15 C20.67928628 22.71351642 8.35055285 30.41296647 -4.01513672 38.05419922 C-14.70173948 44.66272423 -25.35011366 51.33252317 -36 58 C-36.66 57.67 -37.32 57.34 -38 57 C-37.4016333 56.10506836 -36.8032666 55.21013672 -36.18676758 54.28808594 C-33.39377461 50.10977212 -30.60271956 45.93016629 -27.8125 41.75 C-27.3115683 40.99957428 -26.8106366 40.24914856 -26.29452515 39.47598267 C-19.72001482 29.62313646 -13.17770079 19.75302205 -6.77075195 9.79003906 C-4.61286275 6.44072552 -2.4625286 3.1378709 0 0 Z " fill="#116280" transform="translate(809,187)" />
<path d="M0 0 C0 0.99 0 1.98 0 3 C-1.43359375 4.65625 -1.43359375 4.65625 -3.4375 6.5 C-6.63152784 9.57096547 -9.48505825 12.7250044 -12.25 16.1875 C-15.67732233 20.45983456 -19.25713336 24.50764823 -23 28.5 C-27.47943089 33.28289438 -31.68453511 38.2081755 -35.7890625 43.3203125 C-38.1093495 46.13253315 -40.53071134 48.81797263 -43 51.5 C-49.99163991 59.10950577 -56.43997615 67.11637442 -62.58984375 75.41796875 C-63.05519531 75.94003906 -63.52054688 76.46210938 -64 77 C-64.66 77 -65.32 77 -66 77 C-66 65.12 -66 53.24 -66 41 C-60.1528125 37.41125 -60.1528125 37.41125 -54.1875 33.75 C-45.40829001 28.35394164 -36.65699058 22.91876454 -27.95654297 17.39648438 C-18.6867079 11.51893729 -9.34220493 5.76156401 0 0 Z " fill="#4699AC" transform="translate(842,212)" />
<path d="M0 0 C5.61 0 11.22 0 17 0 C17 23.43 17 46.86 17 71 C11.39 71 5.78 71 0 71 C0 47.57 0 24.14 0 0 Z " fill="#243143" transform="translate(857,509)" />
<path d="M0 0 C0.99 0.495 0.99 0.495 2 1 C1.44820068 1.72413086 0.89640137 2.44826172 0.32788086 3.19433594 C-5.13451823 10.41260967 -10.36451113 17.75039032 -15.4375 25.25 C-16.17178223 26.33249023 -16.90606445 27.41498047 -17.66259766 28.53027344 C-24.40420065 38.51420279 -30.81968527 48.66060555 -37 59 C-44.94654605 59.20752677 -52.67202242 58.39600308 -60.5625 57.5 C-61.85736328 57.35691406 -63.15222656 57.21382812 -64.48632812 57.06640625 C-67.6580635 56.71529163 -70.82923028 56.35971319 -74 56 C-74.33 55.34 -74.66 54.68 -75 54 C-74.19820312 53.42894531 -73.39640625 52.85789063 -72.5703125 52.26953125 C-65.75796186 47.41273796 -58.96398015 42.53172661 -52.1875 37.625 C-46.34271558 33.39340335 -40.46943311 29.20683028 -34.5625 25.0625 C-26.69761123 19.54069846 -18.96221654 13.85086889 -11.2421875 8.12890625 C-7.52442385 5.37634742 -3.77260023 2.67684499 0 0 Z " fill="#2888A7" transform="translate(639,194)" />
<path d="M0 0 C0.66 0.33 1.32 0.66 2 1 C0.35 2.65 -1.3 4.3 -3 6 C9.68678585 4.98612437 22.18617619 3.46960651 34.73413086 1.32128906 C35.73968018 1.15081055 36.74522949 0.98033203 37.78125 0.8046875 C38.66876953 0.64983887 39.55628906 0.49499023 40.47070312 0.33544922 C43.0121845 -0.00161598 45.43953781 -0.05923801 48 0 C47.44712513 6.89939841 46.39292914 13.54964023 44.9375 20.3125 C43.27947957 27.58264352 43.27947957 27.58264352 43 35 C44.65 34.34 46.3 33.68 48 33 C44.61883353 36.7434343 44.61883353 36.7434343 42.14331055 37.76977539 C40 38 40 38 37.83129883 37.14233398 C37.04779053 36.68157471 36.26428223 36.22081543 35.45703125 35.74609375 C34.55952148 35.22764893 33.66201172 34.7092041 32.73730469 34.17504883 C31.77211914 33.60165771 30.80693359 33.0282666 29.8125 32.4375 C27.75181654 31.24130081 25.69059843 30.04602229 23.62890625 28.8515625 C22.55141113 28.22282227 21.47391602 27.59408203 20.36376953 26.94628906 C14.69693556 23.66743869 8.97123609 20.49513845 3.25 17.3125 C1.1502773 16.14329873 -0.94873885 14.97282721 -3.046875 13.80078125 C-3.93213867 13.30747314 -4.81740234 12.81416504 -5.72949219 12.3059082 C-7.52719116 11.27194134 -9.27446147 10.15035902 -11 9 C-11 8.34 -11 7.68 -11 7 C-7.37 4.69 -3.74 2.38 0 0 Z " fill="#142B5A" transform="translate(654,415)" />
<path d="M0 0 C0.33 0 0.66 0 1 0 C1.33 18.81 1.66 37.62 2 57 C6.455 50.07 6.455 50.07 11 43 C12.60392583 40.53245564 14.2109795 38.06693424 15.82421875 35.60546875 C16.21897903 35.00293777 16.61373932 34.4004068 17.02046204 33.77961731 C17.83569791 32.53558638 18.65122014 31.29174307 19.46704102 30.0480957 C20.69817589 28.17122455 21.92825445 26.29366428 23.15820312 24.41601562 C27.41163478 17.92581879 31.68004928 11.44620155 36 5 C47.87574469 5.43594506 59.31838477 6.82762945 71 9 C67.51625543 12.65760983 63.97456276 15.596004 59.8125 18.5 C58.56337609 19.37830071 57.31470023 20.2572389 56.06640625 21.13671875 C55.40656738 21.59997559 54.74672852 22.06323242 54.06689453 22.54052734 C50.43993806 25.10158874 46.84639191 27.70878088 43.25 30.3125 C41.71750269 31.42064867 40.18495005 32.52872083 38.65234375 33.63671875 C37.88519043 34.19149902 37.11803711 34.7462793 36.32763672 35.31787109 C34.01257966 36.99090897 31.69600186 38.66181808 29.37890625 40.33203125 C27.85673619 41.42963946 26.33460044 42.52729525 24.8125 43.625 C24.07491455 44.15673828 23.3373291 44.68847656 22.57739258 45.23632812 C18.89562151 47.89445865 15.22426553 50.56544848 11.5703125 53.26171875 C10.87317139 53.77589355 10.17603027 54.29006836 9.45776367 54.81982422 C8.13858317 55.79450332 6.82096363 56.77129965 5.50512695 57.75048828 C4.01617767 58.85113282 2.50988739 59.92825916 1 61 C0.67 61 0.34 61 0 61 C0 40.87 0 20.74 0 0 Z " fill="#17385F" transform="translate(564,249)" />
<path d="M0 0 C0.33 0.66 0.66 1.32 1 2 C2.82647454 2.76359667 2.82647454 2.76359667 5.02856445 3.3671875 C9.78979978 4.86940581 14.10410241 6.85798135 18.54296875 9.125 C19.3150618 9.51316895 20.08715485 9.90133789 20.88264465 10.30126953 C23.32050845 11.52850544 25.75404404 12.76405098 28.1875 14 C29.82979537 14.82868561 31.47237139 15.65681525 33.11523438 16.484375 C36.13090011 18.00438375 39.14491672 19.52755788 42.15698242 21.0546875 C45.43221948 22.71474541 48.71399205 24.36134387 52 26 C52 26.99 52 27.98 52 29 C19.35485968 34.11312947 19.35485968 34.11312947 7.875 35.3125 C7.15658936 35.38839355 6.43817871 35.46428711 5.69799805 35.54248047 C1.45344056 35.9542544 -2.73731971 36.06089543 -7 36 C-6.51358785 29.15182898 -5.64006048 22.66957927 -4 16 C-3.34 16 -2.68 16 -2 16 C-2.185625 15.38125 -2.37125 14.7625 -2.5625 14.125 C-3.18652488 9.6676794 -2.56103695 5.44513889 -2 1 C-1.34 0.67 -0.68 0.34 0 0 Z " fill="#11648A" transform="translate(710,378)" />
<path d="M0 0 C0.33 0 0.66 0 1 0 C1 21.45 1 42.9 1 65 C-6.59 61.7 -14.18 58.4 -22 55 C-27.97309306 52.87745555 -27.97309306 52.87745555 -34 51 C-28.5960479 42.38607721 -22.99300258 33.91205708 -17.34716797 25.45556641 C-15.86903301 23.24106039 -14.39339286 21.02490655 -12.91796875 18.80859375 C-11.96368974 17.37750542 -11.00926767 15.94651247 -10.0546875 14.515625 C-9.4045015 13.53882782 -9.4045015 13.53882782 -8.74118042 12.54229736 C-5.9069417 8.30163903 -3.03809753 4.09789899 0 0 Z " fill="#2AB6B6" transform="translate(843,136)" />
<path d="M0 0 C12.375 0 12.375 0 16.66796875 0.65625 C17.57998047 0.79160156 18.49199219 0.92695313 19.43164062 1.06640625 C20.79579102 1.28103516 20.79579102 1.28103516 22.1875 1.5 C23.13947266 1.64308594 24.09144531 1.78617188 25.07226562 1.93359375 C27.38270352 2.28190097 29.69176682 2.63741999 32 3 C32.6640625 5.7421875 32.6640625 5.7421875 33 9 C32.0234375 11.0703125 32.0234375 11.0703125 30.375 13.125 C26.61078777 18.10902653 23.19029962 23.24608939 19.8125 28.5 C13.63238199 38.06135131 7.33875091 47.54326891 1 57 C0.67 57 0.34 57 0 57 C0 38.19 0 19.38 0 0 Z " fill="#224C86" transform="translate(565,250)" />
<path d="M0 0 C2 3 2 3 1.9765625 5.69921875 C1.86054687 6.68535156 1.74453125 7.67148437 1.625 8.6875 C1.51414062 9.68136719 1.40328125 10.67523438 1.2890625 11.69921875 C1.14597656 12.83810547 1.14597656 12.83810547 1 14 C0.34 14 -0.32 14 -1 14 C-1.13277344 15.02480469 -1.26554688 16.04960937 -1.40234375 17.10546875 C-1.58064088 18.4661574 -1.75903123 19.82683385 -1.9375 21.1875 C-2.02451172 21.86103516 -2.11152344 22.53457031 -2.20117188 23.22851562 C-2.67825477 26.85081166 -3.23012035 30.42803585 -4 34 C-3.01 34.495 -3.01 34.495 -2 35 C-3.15278442 35.15819214 -3.15278442 35.15819214 -4.32885742 35.31958008 C-7.94848557 35.81663504 -11.56799806 36.31452688 -15.1875 36.8125 C-15.84194092 36.90237183 -16.49638184 36.99224365 -17.1706543 37.08483887 C-23.92555057 38.01273653 -30.6793003 38.94591151 -37.42578125 39.93359375 C-38.85144409 40.14181763 -38.85144409 40.14181763 -40.3059082 40.35424805 C-42.05880562 40.61174208 -43.81127589 40.87216661 -45.56323242 41.13598633 C-49.41201709 41.70073859 -53.09634014 42.15740564 -57 42 C-51.62149607 34.00907988 -44.98532634 29.57218093 -36.9921875 24.3359375 C-36.02975128 23.70265533 -35.06731506 23.06937317 -34.07571411 22.41690063 C-31.01032735 20.40061358 -27.94271064 18.38774915 -24.875 16.375 C-22.80323522 15.01324931 -20.73161897 13.65127262 -18.66015625 12.2890625 C-14.10733229 9.29544318 -9.55307327 6.30402122 -4.99752808 3.31454468 C-3.32773417 2.21567717 -1.66321036 1.10880691 0 0 Z " fill="#25497F" transform="translate(707,380)" />
<path d="M0 0 C0.33 0 0.66 0 1 0 C1 23.76 1 47.52 1 72 C0.34 72 -0.32 72 -1 72 C-2.30932617 70.58227539 -2.30932617 70.58227539 -3.79296875 68.59765625 C-4.33783936 67.87586182 -4.88270996 67.15406738 -5.4440918 66.41040039 C-6.0194165 65.63559326 -6.59474121 64.86078613 -7.1875 64.0625 C-8.36438824 62.49985305 -9.54146995 60.93735179 -10.71875 59.375 C-11.28464844 58.61960937 -11.85054687 57.86421875 -12.43359375 57.0859375 C-14.3296921 54.56095865 -16.25117857 52.05674455 -18.1875 49.5625 C-18.69667969 48.90378906 -19.20585938 48.24507813 -19.73046875 47.56640625 C-21.05919751 45.87139297 -21.05919751 45.87139297 -23 44 C-20.69056717 39.50080005 -18.37928754 35.00255515 -16.06640625 30.50512695 C-15.28238856 28.97998763 -14.49884687 27.4546035 -13.71582031 25.92895508 C-9.24871735 17.22610167 -4.74894591 8.55343332 0 0 Z " fill="#25858C" transform="translate(765,257)" />
<path d="M0 0 C2.3579219 3.14389586 4.2460175 6.06360214 6.14453125 9.47265625 C6.73943359 10.53806641 7.33433594 11.60347656 7.94726562 12.70117188 C8.56279297 13.81041016 9.17832031 14.91964844 9.8125 16.0625 C10.41642578 17.14466797 11.02035156 18.22683594 11.64257812 19.34179688 C12.84650345 21.50212359 14.04464744 23.66568293 15.23681641 25.83251953 C16.40536551 27.93176573 17.60023672 30.0165896 18.82177734 32.08544922 C19.37945801 33.04596191 19.93713867 34.00647461 20.51171875 34.99609375 C21.01533936 35.84228271 21.51895996 36.68847168 22.0378418 37.56030273 C23 40 23 40 22.82397461 42.58544922 C21.96053902 45.1156353 21.03107108 46.61154882 19.3046875 48.63671875 C18.75643311 49.29220703 18.20817871 49.94769531 17.64331055 50.62304688 C17.05976807 51.30431641 16.47622559 51.98558594 15.875 52.6875 C14.68881828 54.10591267 13.50521269 55.52648375 12.32421875 56.94921875 C11.7523584 57.63806152 11.18049805 58.3269043 10.59130859 59.03662109 C7.49215792 62.86039674 4.71365043 66.89498698 2 71 C1.34 71 0.68 71 0 71 C0 47.57 0 24.14 0 0 Z " fill="#186088" transform="translate(642,265)" />
<path d="M0 0 C1.18464844 -0.00773438 2.36929688 -0.01546875 3.58984375 -0.0234375 C7.40676008 0.41449891 9.7932579 1.38726339 13.0625 3.375 C16.08294194 6.12418866 18.60909162 9.543287 20.0625 13.375 C20.0625 14.365 20.0625 15.355 20.0625 16.375 C7.1925 16.375 -5.6775 16.375 -18.9375 16.375 C-17.80532517 9.58195103 -17.80532517 9.58195103 -15.1875 6.6875 C-14.69765625 6.12675781 -14.2078125 5.56601562 -13.703125 4.98828125 C-9.29732463 0.96262737 -5.96066626 -0.0388317 0 0 Z " fill="#F4F5F2" transform="translate(528.9375,521.625)" />
<path d="M0 0 C3.38083729 2.55624283 6.37898722 5.27460397 8.5625 8.9375 C9.0575 11.9075 9.0575 11.9075 9.5625 14.9375 C-3.3075 14.9375 -16.1775 14.9375 -29.4375 14.9375 C-27.61653357 8.56411748 -26.87627818 6.37627818 -22.4375 1.9375 C-16.22180904 -2.72426822 -7.15504057 -2.21155799 0 0 Z " fill="#F4F5F2" transform="translate(762.4375,523.0625)" />
<path d="M0 0 C2.08984375 0.73046875 2.08984375 0.73046875 5.15234375 2.73046875 C7.08042501 5.71588489 7.47035261 6.81813495 7.65234375 10.23046875 C7.46704742 13.59949287 7.07040631 14.76156865 5.21484375 17.73046875 C3.08984375 19.73046875 3.08984375 19.73046875 1.08984375 20.73046875 C-2.6709202 21.2569757 -6.26706661 21.3837052 -9.8359375 19.96484375 C-11.47265625 18.85546875 -11.47265625 18.85546875 -13.91015625 15.73046875 C-14.83169282 12.18019005 -14.83716102 9.28021871 -13.91015625 5.73046875 C-10.51971443 0.33087621 -6.13864019 -1.22772804 0 0 Z " fill="#283546" transform="translate(868.91015625,477.26953125)" />
<path d="M0 0 C-1.43308135 3.95906817 -3.33141949 7.28718181 -5.625 10.8125 C-6.25664063 11.78832031 -6.88828125 12.76414063 -7.5390625 13.76953125 C-8.02117188 14.50558594 -8.50328125 15.24164063 -9 16 C-20.69579499 16.42530164 -32.6693445 14.88416686 -44 12 C-41.21637993 10.5192501 -38.54180716 9.48197534 -35.5078125 8.6328125 C-34.64414062 8.38869629 -33.78046875 8.14458008 -32.890625 7.89306641 C-31.97796875 7.63960449 -31.0653125 7.38614258 -30.125 7.125 C-28.23170681 6.5939782 -26.3384778 6.06272755 -24.4453125 5.53125 C-23.05554199 5.14259766 -23.05554199 5.14259766 -21.63769531 4.74609375 C-19.31243568 4.088375 -16.99473383 3.41138892 -14.6796875 2.71875 C-13.46539063 2.3578125 -12.25109375 1.996875 -11 1.625 C-9.948125 1.30789062 -8.89625 0.99078125 -7.8125 0.6640625 C-5.092975 0.02195243 -2.78119602 -0.13292481 0 0 Z " fill="#2A91B4" transform="translate(611,237)" />
<path d="M0 0 C0 21.45 0 42.9 0 65 C-0.99 65.495 -0.99 65.495 -2 66 C-2.99 65.505 -2.99 65.505 -4 65 C-3.505 63.515 -3.505 63.515 -3 62 C-2.01 62.495 -2.01 62.495 -1 63 C-1.33 43.53 -1.66 24.06 -2 4 C-8.52031587 7.21782782 -8.52031587 7.21782782 -14.61328125 10.91015625 C-15.38607422 11.42513672 -16.15886719 11.94011719 -16.95507812 12.47070312 C-17.73302734 12.99599609 -18.51097656 13.52128906 -19.3125 14.0625 C-20.10978516 14.59166016 -20.90707031 15.12082031 -21.72851562 15.66601562 C-25.86672205 18.36399114 -25.86672205 18.36399114 -29.55541992 21.61499023 C-31 23 -31 23 -34.0625 23.9375 C-35.031875 24.288125 -36.00125 24.63875 -37 25 C-38.09166275 26.93330603 -38.09166275 26.93330603 -39 29 C-41.25 30.5 -41.25 30.5 -44 32 C-45.485 33.0209375 -45.485 33.0209375 -47 34.0625 C-49.64315965 35.76954061 -52.04622927 36.95749268 -55 38 C-55 37.01 -55 36.02 -55 35 C-54.2471875 34.50822266 -53.494375 34.01644531 -52.71875 33.50976562 C-49.80315509 31.60436774 -46.88811268 29.69813105 -43.97354126 27.79116821 C-42.66065976 26.93222957 -41.34765165 26.07348441 -40.03451538 25.2149353 C-32.932703 20.57052018 -25.84205096 15.91161802 -18.80078125 11.17578125 C-18.24494354 10.80246674 -17.68910583 10.42915222 -17.11642456 10.04452515 C-14.48694323 8.27780343 -11.86111397 6.50602811 -9.24023438 4.7265625 C-8.31146484 4.10136719 -7.38269531 3.47617187 -6.42578125 2.83203125 C-5.61536377 2.28264893 -4.80494629 1.7332666 -3.9699707 1.16723633 C-2 0 -2 0 0 0 Z " fill="#378996" transform="translate(766,342)" />
<path d="M0 0 C0.99 0.33 1.98 0.66 3 1 C-4.62269832 6.99210372 -12.3727242 12.74967576 -20.32104492 18.30322266 C-24.21304785 21.02487247 -28.07892105 23.77527938 -31.91015625 26.58203125 C-32.71880127 27.17330811 -33.52744629 27.76458496 -34.3605957 28.3737793 C-35.91830567 29.51544207 -37.47299068 30.66124719 -39.02416992 31.81176758 C-39.7329126 32.3302124 -40.44165527 32.84865723 -41.171875 33.3828125 C-42.1014502 34.06947998 -42.1014502 34.06947998 -43.04980469 34.77001953 C-45 36 -45 36 -50 38 C-50 62.09 -50 86.18 -50 111 C-50.33 111 -50.66 111 -51 111 C-51.32552733 101.52511941 -51.57368102 92.05218359 -51.72537041 82.57291603 C-51.79820938 78.17012642 -51.89682114 73.77118147 -52.05615234 69.37060547 C-52.20919225 65.11677285 -52.29215021 60.86661513 -52.3282814 56.61024094 C-52.35399535 54.99350467 -52.40422324 53.37695264 -52.48022079 51.76179886 C-52.71695117 46.51820692 -52.64650656 42.02122812 -51 37 C-47.68413336 32.97868555 -43.25649238 30.44989032 -38.73399734 27.98347092 C-36.16835907 26.52831838 -33.85060021 24.77564835 -31.5 23 C-26.69493374 19.49379212 -21.85601336 16.03706317 -17.00683594 12.59228516 C-13.08721307 9.8005092 -9.23542978 6.93744691 -5.453125 3.9609375 C-4 3 -4 3 -2 3 C-2 2.34 -2 1.68 -2 1 C-1.34 0.67 -0.68 0.34 0 0 Z " fill="#D9F3F7" transform="translate(692,226)" />
<path d="M0 0 C0.66 0 1.32 0 2 0 C2 47.85 2 95.7 2 145 C1.67 145 1.34 145 1 145 C1 98.14 1 51.28 1 3 C-0.98 3.66 -2.96 4.32 -5 5 C-3.37660195 3.29115995 -1.70680947 1.62553283 0 0 Z " fill="#89BDC9" transform="translate(698,224)" />
<path d="M0 0 C0.99 0.33 1.98 0.66 3 1 C-18.88412131 14.85822305 -40.83799312 28.58960955 -63 42 C-63 41.01 -63 40.02 -63 39 C-61.04109119 37.60699818 -59.0360882 36.27754554 -57 35 C-56.01 35 -55.02 35 -54 35 C-54 34.34 -54 33.68 -54 33 C-53.443125 32.69707031 -52.88625 32.39414063 -52.3125 32.08203125 C-47.83000219 29.62120052 -43.44360378 27.06685933 -39.12109375 24.3359375 C-36.63288028 22.76877542 -34.13409504 21.22103585 -31.625 19.6875 C-30.79226563 19.17574219 -29.95953125 18.66398437 -29.1015625 18.13671875 C-27 17 -27 17 -25 17 C-25 16.34 -25 15.68 -25 15 C-23.21118264 13.99491199 -21.41885304 12.99607264 -19.625 12 C-18.62726562 11.443125 -17.62953125 10.88625 -16.6015625 10.3125 C-14 9 -14 9 -12 9 C-12 8.34 -12 7.68 -12 7 C-10.07010782 5.80017556 -8.13080772 4.61547182 -6.1875 3.4375 C-5.10855469 2.77621094 -4.02960937 2.11492187 -2.91796875 1.43359375 C-1.47357422 0.72396484 -1.47357422 0.72396484 0 0 Z " fill="#DEFAF5" transform="translate(802,158)" />
<path d="M0 0 C0 21.45 0 42.9 0 65 C-0.33 65 -0.66 65 -1 65 C-1.33 44.21 -1.66 23.42 -2 2 C-9.92 13.88 -9.92 13.88 -18 26 C-18.33 24.68 -18.66 23.36 -19 22 C-18.360625 21.401875 -17.72125 20.80375 -17.0625 20.1875 C-14.79689611 18.09189663 -14.79689611 18.09189663 -14 15 C-13.34 15 -12.68 15 -12 15 C-11.37542727 11.56484998 -11 8.50935186 -11 5 C-9.73461631 4.15841464 -8.46246221 3.32700252 -7.1875 2.5 C-6.47980469 2.0359375 -5.77210938 1.571875 -5.04296875 1.09375 C-3 0 -3 0 0 0 Z " fill="#86CEC6" transform="translate(845,135)" />
<path d="M0 0 C0.99 0.33 1.98 0.66 3 1 C-10.17194914 9.80559071 -23.38822962 18.54221693 -36.625 27.25 C-38.51826117 28.49604513 -40.41149049 29.74213865 -42.3046875 30.98828125 C-46.86942651 33.99274267 -51.4345513 36.99661712 -56 40 C-56.66 39.34 -57.32 38.68 -58 38 C-56.71186658 37.16121545 -55.41936744 36.32913217 -54.125 35.5 C-53.40570312 35.0359375 -52.68640625 34.571875 -51.9453125 34.09375 C-50 33 -50 33 -48 33 C-48 32.34 -48 31.68 -48 31 C-47.01 31 -46.02 31 -45 31 C-45 30.34 -45 29.68 -45 29 C-43.27136297 27.89500435 -41.54206612 26.79104086 -39.8125 25.6875 C-38.36810547 24.76517578 -38.36810547 24.76517578 -36.89453125 23.82421875 C-28.75707547 18.69575472 -28.75707547 18.69575472 -25 18 C-24.505 16.515 -24.505 16.515 -24 15 C-22.02699884 13.94773272 -20.02323613 12.95211112 -18 12 C-17.278125 11.443125 -16.55625 10.88625 -15.8125 10.3125 C-15.214375 9.879375 -14.61625 9.44625 -14 9 C-13.01 9 -12.02 9 -11 9 C-10.67 8.01 -10.34 7.02 -10 6 C-8.35 5.67 -6.7 5.34 -5 5 C-5 4.34 -5 3.68 -5 3 C-4.01 3 -3.02 3 -2 3 C-2 2.34 -2 1.68 -2 1 C-1.34 0.67 -0.68 0.34 0 0 Z " fill="#DDF6F8" transform="translate(755,346)" />
<path d="M0 0 C0.66 0.33 1.32 0.66 2 1 C-0.97 4.96 -3.94 8.92 -7 13 C-7.495 12.01 -7.495 12.01 -8 11 C-7.67 10.34 -7.34 9.68 -7 9 C-11.17562313 11.75137958 -15.33436373 14.52126348 -19.421875 17.40234375 C-20.00364502 17.81105713 -20.58541504 18.21977051 -21.18481445 18.64086914 C-22.34495949 19.45777027 -23.50240195 20.27852431 -24.65698242 21.10327148 C-26.08063462 22.10392502 -27.53807307 23.05614474 -29 24 C-29.66 24 -30.32 24 -31 24 C-31.268125 24.61875 -31.53625 25.2375 -31.8125 25.875 C-33 28 -33 28 -36 30 C-37.98799818 30.70164642 -39.98698517 31.37372872 -42 32 C-42 32.66 -42 33.32 -42 34 C-42.598125 34.268125 -43.19625 34.53625 -43.8125 34.8125 C-46.04327908 35.8893979 -46.04327908 35.8893979 -47.625 37.625 C-48.305625 38.305625 -48.305625 38.305625 -49 39 C-49.66 39 -50.32 39 -51 39 C-50 36 -50 36 -47.33203125 33.87109375 C-46.16410193 33.05235837 -44.99049288 32.2416886 -43.8125 31.4375 C-42.52201263 30.5366342 -41.23165135 29.63558776 -39.94140625 28.734375 C-39.28156738 28.27740234 -38.62172852 27.82042969 -37.94189453 27.34960938 C-35.0252266 25.32253617 -32.13748372 23.25583043 -29.25 21.1875 C-28.69111084 20.78837402 -28.13222168 20.38924805 -27.55639648 19.97802734 C-22.48489849 16.35482195 -17.42867314 12.71051235 -12.375 9.0625 C-11.60446289 8.50651123 -10.83392578 7.95052246 -10.04003906 7.37768555 C-9.31268555 6.85215088 -8.58533203 6.32661621 -7.8359375 5.78515625 C-7.19188965 5.31988525 -6.5478418 4.85461426 -5.88427734 4.37524414 C-3.90962096 2.93403665 -1.95264809 1.47085046 0 0 Z " fill="#3E9B9E" transform="translate(639,194)" />
<path d="M0 0 C3.10344828 4.65517241 3.10344828 4.65517241 4 7 C3.85304688 7.70503662 3.70609375 8.41007324 3.5546875 9.13647461 C2.85396868 12.75387383 2.89547437 16.27479765 2.9375 19.94140625 C2.94128662 20.70492905 2.94507324 21.46845184 2.94897461 22.25511169 C2.96517902 25.49965228 2.99308154 28.74406317 3.02050781 31.98852539 C3.09302551 41.38433794 3.03530019 50.64416784 2 60 C1.34 59.67 0.68 59.34 0 59 C0 39.53 0 20.06 0 0 Z " fill="#449296" transform="translate(709,224)" />
<path d="M0 0 C0.82757812 0.33837891 0.82757812 0.33837891 1.671875 0.68359375 C-6.84904468 6.26092299 -15.47046168 11.67566896 -24.13140869 17.03222656 C-25.30018016 17.75563783 -26.46811567 18.48040152 -27.63519287 19.20654297 C-29.30250423 20.24323783 -30.9734668 21.27405323 -32.64453125 22.3046875 C-33.61849854 22.90724365 -34.59246582 23.5097998 -35.59594727 24.13061523 C-38.12588105 25.56863764 -40.60086114 26.68054429 -43.328125 27.68359375 C-41.51508144 24.82788411 -39.64309305 22.15628489 -37.328125 19.68359375 C-33.828125 18.43359375 -33.828125 18.43359375 -30.328125 17.68359375 C-28.31630043 16.36816999 -26.31412837 15.03768695 -24.328125 13.68359375 C-23.338125 13.68359375 -22.348125 13.68359375 -21.328125 13.68359375 C-21.328125 13.02359375 -21.328125 12.36359375 -21.328125 11.68359375 C-19.36921619 10.29059193 -17.3642132 8.96113929 -15.328125 7.68359375 C-14.338125 7.68359375 -13.348125 7.68359375 -12.328125 7.68359375 C-12.328125 7.02359375 -12.328125 6.36359375 -12.328125 5.68359375 C-10.75465324 4.64762475 -9.16890954 3.63027643 -7.578125 2.62109375 C-6.69640625 2.05261719 -5.8146875 1.48414063 -4.90625 0.8984375 C-2.328125 -0.31640625 -2.328125 -0.31640625 0 0 Z " fill="#29607F" transform="translate(822.328125,259.31640625)" />
<path d="M0 0 C0.33 0.99 0.66 1.98 1 3 C0.01 4.485 0.01 4.485 -1 6 C-0.175 6.2475 0.65 6.495 1.5 6.75 C5.52373471 8.18704811 9.21979024 10.02354515 13 12 C13 12.66 13 13.32 13 14 C14.3303125 14.433125 14.3303125 14.433125 15.6875 14.875 C18.50382424 15.83148748 21.25083156 16.86798946 24 18 C24 18.66 24 19.32 24 20 C24.86367188 20.25652344 25.72734375 20.51304687 26.6171875 20.77734375 C30.10500207 22.03795109 32.9669541 23.62809593 36.125 25.5625 C40.79504855 28.45028134 40.79504855 28.45028134 46 30 C46 30.66 46 31.32 46 32 C46.99 32.495 46.99 32.495 48 33 C44.42067062 32.42195209 41.67476802 31.48781521 38.5078125 29.734375 C37.64849121 29.26241699 36.78916992 28.79045898 35.90380859 28.30419922 C34.98680176 27.79131348 34.06979492 27.27842773 33.125 26.75 C31.69341553 25.95940186 31.69341553 25.95940186 30.23291016 25.15283203 C21.92929497 20.55413553 13.66440534 15.88480512 5.41455078 11.19042969 C4.5017334 10.67125977 3.58891602 10.15208984 2.6484375 9.6171875 C1.84583496 9.15940918 1.04323242 8.70163086 0.21630859 8.22998047 C-1.83071149 7.09394972 -3.89739555 6.02878075 -6 5 C-6 4.34 -6 3.68 -6 3 C-4.02 2.01 -2.04 1.02 0 0 Z " fill="#2B557A" transform="translate(720,211)" />
<path d="M0 0 C0.33 0 0.66 0 1 0 C1.02505615 1.3096875 1.0501123 2.619375 1.07592773 3.96875 C1.17126603 8.90404347 1.27115911 13.83923669 1.37231445 18.77441406 C1.4151921 20.89613473 1.45689195 23.01787958 1.49731445 25.13964844 C1.71171692 36.35210313 1.97375229 47.52588882 2.84375 58.70898438 C3.07264535 63.53009273 2.65742921 68.22605251 2 73 C1.67 73 1.34 73 1 73 C-0.2343558 65.34613982 -0.12716362 57.73490438 -0.09765625 50 C-0.0957881 48.55411834 -0.09436607 47.10823604 -0.09336853 45.66235352 C-0.08957463 41.88126843 -0.07977151 38.10022256 -0.06866455 34.31915283 C-0.05838274 30.4510552 -0.05385649 26.58295115 -0.04882812 22.71484375 C-0.03814604 15.14321141 -0.02110777 7.57161123 0 0 Z " fill="#2D6987" transform="translate(709,283)" />
<path d="M0 0 C4.30633959 0.65902439 8.04876739 2.1814198 11.99609375 3.94921875 C12.66608902 4.24431839 13.33608429 4.53941803 14.02638245 4.84346008 C16.16553438 5.78677523 18.30158241 6.73688736 20.4375 7.6875 C22.53394236 8.61523459 24.63100819 9.5415401 26.72842407 10.46707153 C28.1123975 11.07892898 29.4953604 11.69307744 30.87728882 12.30953979 C34.25979465 13.81433186 37.65020208 15.276552 41.08642578 16.65478516 C42.05359276 17.04849052 42.05359276 17.04849052 43.04029846 17.45014954 C44.79764382 18.16148843 46.56087741 18.85823101 48.32446289 19.55395508 C49.20739014 20.0311499 50.09031738 20.50834473 51 21 C51.66 22.32 52.32 23.64 53 25 C50.03 25 47.06 25 44 25 C44.99 24.34 45.98 23.68 47 23 C43.44360764 20.69880494 40.05281712 19.22527029 36 18 C36 17.34 36 16.68 36 16 C35.45472656 15.82984375 34.90945313 15.6596875 34.34765625 15.484375 C29.57437104 13.95039616 25.01789163 12.19207406 20.4609375 10.10546875 C17.60200383 8.82121759 14.71118534 7.62918175 11.8125 6.4375 C7.78213194 4.76976149 3.85670284 3.03548205 0 1 C0 0.67 0 0.34 0 0 Z " fill="#82CEC1" transform="translate(640,193)" />
<path d="M0 0 C-2.52717252 2.80820783 -5.37566054 4.59059904 -8.59375 6.546875 C-9.7075 7.2275 -10.82125 7.908125 -11.96875 8.609375 C-13.14571046 9.32311932 -14.32279435 10.03666015 -15.5 10.75 C-17.78225943 12.1389769 -20.06300434 13.53041091 -22.34375 14.921875 C-24.00664063 15.93604492 -24.00664063 15.93604492 -25.703125 16.97070312 C-30.50389551 19.92567976 -35.25748914 22.95261309 -40 26 C-40.66 25.67 -41.32 25.34 -42 25 C-38.81842143 21.54571469 -36.39787018 19.57872263 -32 18 C-31.360625 17.505 -30.72125 17.01 -30.0625 16.5 C-28 15 -28 15 -24.8125 14 C-23.4203125 13.505 -23.4203125 13.505 -22 13 C-21.67 12.01 -21.34 11.02 -21 10 C-19.3344837 9.30048315 -17.66597468 8.60690673 -15.98046875 7.95703125 C-13.05336735 6.54255424 -10.85883033 4.49256246 -8.48046875 2.3046875 C-5.68178144 -0.16170184 -3.6256835 -0.09541272 0 0 Z " fill="#255870" transform="translate(813,219)" />
<path d="M0 0 C0.33 0 0.66 0 1 0 C1.33 18.81 1.66 37.62 2 57 C2.99 55.68 3.98 54.36 5 53 C8.1875 52.25 8.1875 52.25 11 52 C11.33 51.01 11.66 50.02 12 49 C12.66 49.66 13.32 50.32 14 51 C11.85637773 52.66958063 9.71026458 54.33576357 7.5625 56 C6.95083984 56.47695313 6.33917969 56.95390625 5.70898438 57.4453125 C4.15335023 58.64856543 2.57810638 59.82637507 1 61 C0.67 61 0.34 61 0 61 C0 40.87 0 20.74 0 0 Z " fill="#172F56" transform="translate(564,249)" />
<path d="M0 0 C0.66 0.33 1.32 0.66 2 1 C-1.55806165 3.29861438 -5.12218839 5.58765005 -8.6875 7.875 C-9.69490234 8.52597656 -10.70230469 9.17695313 -11.74023438 9.84765625 C-12.71669922 10.47285156 -13.69316406 11.09804687 -14.69921875 11.7421875 C-15.59471436 12.3182373 -16.49020996 12.89428711 -17.4128418 13.48779297 C-20 15 -20 15 -25 17 C-24.67 29.21 -24.34 41.42 -24 54 C-24.66 54 -25.32 54 -26 54 C-26.17336019 48.67993773 -26.30021004 43.36152647 -26.38452148 38.03930664 C-26.41967223 36.230096 -26.46740465 34.4210835 -26.52807617 32.61254883 C-26.61324405 30.00812947 -26.65273783 27.40634139 -26.68359375 24.80078125 C-26.71972275 23.99538406 -26.75585175 23.18998688 -26.79307556 22.36018372 C-26.79468815 20.04092115 -26.70635704 18.211197 -26 16 C-23.95846003 13.74447955 -21.7870174 12.21431343 -19 11 C-18.01 11 -17.02 11 -16 11 C-16 10.34 -16 9.68 -16 9 C-15.01 9 -14.02 9 -13 9 C-13 8.34 -13 7.68 -13 7 C-11.5839401 6.20724852 -10.16712447 5.41584688 -8.75 4.625 C-7.56664062 3.96371094 -7.56664062 3.96371094 -6.359375 3.2890625 C-5.58078125 2.86367187 -4.8021875 2.43828125 -4 2 C-3.28328125 1.59523437 -2.5665625 1.19046875 -1.828125 0.7734375 C-1.22484375 0.51820313 -0.6215625 0.26296875 0 0 Z " fill="#D4EDF3" transform="translate(801,236)" />
<path d="M0 0 C0.66 0.66 1.32 1.32 2 2 C2.22705078 4.65673828 2.22705078 4.65673828 2.1953125 8.0703125 C2.18870605 9.34503418 2.18209961 10.61975586 2.17529297 11.93310547 C2.16705505 12.61612732 2.15881714 13.29914917 2.15032959 14.00286865 C2.12485041 16.13753245 2.11178433 18.27194843 2.10205078 20.40673828 C2.07527592 25.70838175 2.02684778 31.00978948 1.97924805 36.3112793 C1.93985404 40.79033056 1.90854531 45.26929497 1.88812256 49.74847412 C1.87512482 51.85477232 1.85010963 53.96071461 1.82470703 56.06689453 C1.81810059 57.34161621 1.81149414 58.61633789 1.8046875 59.9296875 C1.79421387 61.05616699 1.78374023 62.18264648 1.77294922 63.34326172 C1.84787598 64.21998535 1.92280273 65.09670898 2 66 C2.66 66.66 3.32 67.32 4 68 C3.34 68.99 2.68 69.98 2 71 C1.34 71 0.68 71 0 71 C0 47.57 0 24.14 0 0 Z " fill="#2D607B" transform="translate(642,265)" />
<path d="M0 0 C0.66 0 1.32 0 2 0 C3.33257403 16.70842825 3.33257403 16.70842825 2 25 C5.05270463 25.15811388 5.05270463 25.15811388 8 24 C8 23.34 8 22.68 8 22 C9.65 21.67 11.3 21.34 13 21 C9.10569314 25.57157761 5.83064475 26.76075291 0 30 C0 20.1 0 10.2 0 0 Z " fill="#233564" transform="translate(642,382)" />
<path d="M0 0 C0.66 0.33 1.32 0.66 2 1 C-10.63063364 9.05831632 -23.27656743 17.08886857 -36 25 C-36 24.01 -36 23.02 -36 22 C-29.25 18 -29.25 18 -27 18 C-27 17.34 -27 16.68 -27 16 C-24.62120849 14.5727251 -22.24236964 13.14553003 -19.86328125 11.71875 C-18.02641501 10.61612906 -16.19040028 9.51208761 -14.35546875 8.40625 C-9.60238942 5.54418072 -4.83015711 2.7300888 0 0 Z " fill="#DBF9F7" transform="translate(841,211)" />
<path d="M0 0 C0.66 0.33 1.32 0.66 2 1 C-3 6 -3 6 -5.25 8.125 C-7.22443723 9.97977175 -7.22443723 9.97977175 -8 13 C-11.0625 14.1875 -11.0625 14.1875 -14 15 C-13.34 15.66 -12.68 16.32 -12 17 C-14.64 17 -17.28 17 -20 17 C-20.33 16.34 -20.66 15.68 -21 15 C-14 10 -7 5 0 0 Z " fill="#2B6E91" transform="translate(585,233)" />
<path d="M0 0 C-0.33 0.99 -0.66 1.98 -1 3 C-2.93359375 4.140625 -2.93359375 4.140625 -5.4375 5.25 C-10.19457709 7.49978575 -14.27797085 10.21164326 -18.53515625 13.28515625 C-28.18678815 20 -28.18678815 20 -32 20 C-32.99 22.475 -32.99 22.475 -34 25 C-36.31 25 -38.62 25 -41 25 C-37.51910234 22.11313939 -33.96455629 19.63968192 -30.10546875 17.28515625 C-28.98462891 16.59873047 -27.86378906 15.91230469 -26.70898438 15.20507812 C-25.53522831 14.49076699 -24.36139973 13.77657501 -23.1875 13.0625 C-22.02519408 12.35253521 -20.86308308 11.64225121 -19.70117188 10.93164062 C-17.4717765 9.56845159 -15.24119136 8.20720593 -13.00927734 6.84814453 C-10.42063859 5.25833475 -7.85816097 3.6353805 -5.30078125 1.99609375 C-2 0 -2 0 0 0 Z " fill="#83C5BF" transform="translate(801,162)" />
<path d="M0 0 C0 0.99 0 1.98 0 3 C-1.57421875 4.83203125 -1.57421875 4.83203125 -3.6875 6.8125 C-7.05890341 10.05216118 -10.08111105 13.35138882 -13 17 C-13 15.33333333 -13 13.66666667 -13 12 C-14.98 12.99 -14.98 12.99 -17 14 C-17.33 13.01 -17.66 12.02 -18 11 C-12.06 7.37 -6.12 3.74 0 0 Z " fill="#58AAAA" transform="translate(842,212)" />
<path d="M0 0 C0.33 0 0.66 0 1 0 C1 21.45 1 42.9 1 65 C0.01 65.495 0.01 65.495 -1 66 C-1.66 65.67 -2.32 65.34 -3 65 C-2.67 64.01 -2.34 63.02 -2 62 C-1.34 62.33 -0.68 62.66 0 63 C0 42.21 0 21.42 0 0 Z " fill="#297D8C" transform="translate(765,342)" />
<path d="M0 0 C0 0.99 0 1.98 0 3 C-1.95978731 4.7808113 -3.90976876 6.38746997 -6 8 C-7.13639747 8.93864925 -8.27049259 9.8800924 -9.40234375 10.82421875 C-10.57993625 11.77962398 -11.75832839 12.73404441 -12.9375 13.6875 C-13.81051758 14.41549805 -13.81051758 14.41549805 -14.70117188 15.15820312 C-18.69388359 18.36386868 -21.98992974 19.90584672 -27 21 C-22.92821526 16.61313668 -18.42382345 13.31784511 -13.5 9.9375 C-8.88798669 6.74732499 -4.32497543 3.57840229 0 0 Z " fill="#85D0C4" transform="translate(691,229)" />
<path d="M0 0 C0 0.66 0 1.32 0 2 C9.12004552 3.53140195 17.74400342 4.27675737 27 4 C26.67 4.99 26.34 5.98 26 7 C14.30420501 7.42530164 2.3306555 5.88416686 -9 3 C-3 0 -3 0 0 0 Z " fill="#3084AC" transform="translate(576,246)" />
<path d="M0 0 C0.33 0.66 0.66 1.32 1 2 C11.56 3.32 22.12 4.64 33 6 C33 6.66 33 7.32 33 8 C20.89668108 7.40103029 8.98411968 5.73038838 -3 4 C-3.33 4.99 -3.66 5.98 -4 7 C-4.33 6.34 -4.66 5.68 -5 5 C-5.66 4.67 -6.32 4.34 -7 4 C-6.67 3.67 -6.34 3.34 -6 3 C-4.33382885 2.95936168 -2.66611905 2.957279 -1 3 C-0.67 2.01 -0.34 1.02 0 0 Z " fill="#286B95" transform="translate(603,250)" />
<path d="M0 0 C0.66 0 1.32 0 2 0 C1.01504915 2.40337011 0.21936221 3.82477971 -1.82836914 5.46044922 C-2.55660889 5.90404785 -3.28484863 6.34764648 -4.03515625 6.8046875 C-4.84533203 7.30613281 -5.65550781 7.80757813 -6.49023438 8.32421875 C-7.33908203 8.83597656 -8.18792969 9.34773438 -9.0625 9.875 C-10.72076434 10.89206879 -12.37831886 11.91029581 -14.03515625 12.9296875 C-15.25936279 13.67943848 -15.25936279 13.67943848 -16.50830078 14.44433594 C-20.39883323 16.87334561 -24.20323489 19.42761007 -28 22 C-28.66 21.67 -29.32 21.34 -30 21 C-29.14535156 20.44570313 -28.29070313 19.89140625 -27.41015625 19.3203125 C-26.29411027 18.58878657 -25.1782336 17.85700229 -24.0625 17.125 C-22.96035156 16.40570313 -21.85820313 15.68640625 -20.72265625 14.9453125 C-17.94618034 13.28216717 -17.94618034 13.28216717 -17 11 C-16.01 11 -15.02 11 -14 11 C-14 10.34 -14 9.68 -14 9 C-12.35 8.67 -10.7 8.34 -9 8 C-9 7.34 -9 6.68 -9 6 C-8.01 6 -7.02 6 -6 6 C-6 5.34 -6 4.68 -6 4 C-5.01 4 -4.02 4 -3 4 C-3 3.34 -3 2.68 -3 2 C-2.01 2 -1.02 2 0 2 C0 1.34 0 0.68 0 0 Z " fill="#244968" transform="translate(748,339)" />
<path d="M0 0 C0.66 0.66 1.32 1.32 2 2 C2.21118164 3.93945312 2.21118164 3.93945312 2.16015625 6.28125 C2.14919922 7.12300781 2.13824219 7.96476563 2.12695312 8.83203125 C2.10568359 9.71246094 2.08441406 10.59289062 2.0625 11.5 C2.02811747 13.23950133 1.9979652 14.97909299 1.97265625 16.71875 C1.95468994 17.49154297 1.93672363 18.26433594 1.91821289 19.06054688 C1.87101517 21.08297351 1.87101517 21.08297351 3 23 C2.72460254 25.34087842 2.3813074 27.67402489 2 30 C1.814375 31.299375 1.62875 32.59875 1.4375 33.9375 C1.293125 34.948125 1.14875 35.95875 1 37 C0.34 36.67 -0.32 36.34 -1 36 C-0.67 24.12 -0.34 12.24 0 0 Z " fill="#EAFDFD" transform="translate(845,211)" />
<path d="M0 0 C0.66 0.33 1.32 0.66 2 1 C0.34348188 2.34592097 -1.32655239 3.67518731 -3 5 C-3.88945313 5.70576172 -3.88945313 5.70576172 -4.796875 6.42578125 C-10.99816634 11.22558075 -17.57383668 15.36490979 -25 18 C-25.33 17.34 -25.66 16.68 -26 16 C-25.42556152 15.65743164 -24.85112305 15.31486328 -24.25927734 14.96191406 C-21.63023635 13.39285917 -19.00261016 11.82144975 -16.375 10.25 C-15.47136719 9.71117187 -14.56773437 9.17234375 -13.63671875 8.6171875 C-9.01249034 5.84940115 -4.44774285 3.04397019 0 0 Z " fill="#E1F3F7" transform="translate(834,253)" />
<path d="M0 0 C0 0.99 0 1.98 0 3 C-1.88568675 4.60994954 -3.72425413 6.02654445 -5.75 7.4375 C-9.46719381 10.09071442 -12.87064582 12.66556678 -16 16 C-15.67 16.928125 -15.34 17.85625 -15 18.8125 C-14 22 -14 22 -14 25 C-14.81642254 23.73168307 -15.62799105 22.46024069 -16.4375 21.1875 C-16.88996094 20.47980469 -17.34242188 19.77210938 -17.80859375 19.04296875 C-19 17 -19 17 -20 14 C-19.30438965 13.52373169 -19.30438965 13.52373169 -18.59472656 13.0378418 C-16.47919525 11.58863413 -14.36459062 10.1380799 -12.25 8.6875 C-11.52039063 8.18798828 -10.79078125 7.68847656 -10.0390625 7.17382812 C-9.33007812 6.68720703 -8.62109375 6.20058594 -7.890625 5.69921875 C-7.24125977 5.25408936 -6.59189453 4.80895996 -5.92285156 4.3503418 C-3.9160491 2.94104464 -1.95434395 1.48096686 0 0 Z " fill="#86CAD2" transform="translate(662,250)" />
<path d="M0 0 C3.10344828 4.65517241 3.10344828 4.65517241 4 7 C3.77763672 8.03640625 3.77763672 8.03640625 3.55078125 9.09375 C2.81678121 12.96677149 2.93770698 16.6948021 3 20.625 C3.06113223 27.47597732 2.83993543 34.19052351 2 41 C1.67 41 1.34 41 1 41 C0.67 27.47 0.34 13.94 0 0 Z " fill="#4AA7A5" transform="translate(709,224)" />
<path d="M0 0 C0.92232422 0.27263672 0.92232422 0.27263672 1.86328125 0.55078125 C-5.72173605 6.01026738 -13.30185912 11.45190435 -21.13671875 16.55078125 C-21.46671875 15.89078125 -21.79671875 15.23078125 -22.13671875 14.55078125 C-20.39067326 13.08771555 -18.63972422 11.63050045 -16.88671875 10.17578125 C-15.9121875 9.36367187 -14.93765625 8.5515625 -13.93359375 7.71484375 C-11.66638436 5.96060632 -9.67564478 4.79695136 -7.13671875 3.55078125 C-6.80671875 2.89078125 -6.47671875 2.23078125 -6.13671875 1.55078125 C-3.82266607 0.03467777 -2.75198499 -0.57857089 0 0 Z " fill="#DBF4F6" transform="translate(611.13671875,213.44921875)" />
<path d="M0 0 C0.66 0.33 1.32 0.66 2 1 C0.36739286 2.37482707 -1.30225062 3.70647667 -3 5 C-3.66 5 -4.32 5 -5 5 C-5.268125 5.61875 -5.53625 6.2375 -5.8125 6.875 C-7 9 -7 9 -10 11 C-11.98799818 11.70164642 -13.98698517 12.37372872 -16 13 C-16 13.66 -16 14.32 -16 15 C-16.598125 15.268125 -17.19625 15.53625 -17.8125 15.8125 C-20.04327908 16.8893979 -20.04327908 16.8893979 -21.625 18.625 C-22.305625 19.305625 -22.305625 19.305625 -23 20 C-23.66 20 -24.32 20 -25 20 C-24 17 -24 17 -21.19140625 14.765625 C-19.98720717 13.91929495 -18.77720522 13.08118061 -17.5625 12.25 C-16.93520996 11.81187988 -16.30791992 11.37375977 -15.66162109 10.92236328 C-14.38718539 10.03321454 -13.11049353 9.14729067 -11.83154297 8.26464844 C-9.25190202 6.4834514 -6.68951164 4.6778848 -4.125 2.875 C-2.75050279 1.91594568 -1.37572057 0.95729864 0 0 Z " fill="#377C94" transform="translate(613,213)" />
<path d="M0 0 C0.99 0.33 1.98 0.66 3 1 C2.34 1 1.68 1 1 1 C0.773125 1.598125 0.54625 2.19625 0.3125 2.8125 C-1.37642011 5.62736684 -3.12936848 6.43420099 -6 8 C-6.99 8.680625 -7.98 9.36125 -9 10.0625 C-11.64315965 11.76954061 -14.04622927 12.95749268 -17 14 C-17 13.01 -17 12.02 -17 11 C-14.24014502 9.1290704 -11.46554222 7.28129358 -8.6875 5.4375 C-7.50897461 4.63795898 -7.50897461 4.63795898 -6.30664062 3.82226562 C-5.54931641 3.32275391 -4.79199219 2.82324219 -4.01171875 2.30859375 C-3.31522217 1.84251709 -2.61872559 1.37644043 -1.90112305 0.89624023 C-1.27375244 0.60048096 -0.64638184 0.30472168 0 0 Z " fill="#2D7993" transform="translate(728,366)" />
<path d="M0 0 C0.33 0 0.66 0 1 0 C1.33 3.63 1.66 7.26 2 11 C3.32 11.33 4.64 11.66 6 12 C5.67 12.66 5.34 13.32 5 14 C5.99 14.33 6.98 14.66 8 15 C5.36 16.65 2.72 18.3 0 20 C0 13.4 0 6.8 0 0 Z " fill="#244A72" transform="translate(709,348)" />
<path d="M0 0 C0.33 0 0.66 0 1 0 C1.19732164 4.22876835 1.38114059 8.45801938 1.5625 12.6875 C1.61857422 13.88568359 1.67464844 15.08386719 1.73242188 16.31835938 C1.78076172 17.47529297 1.82910156 18.63222656 1.87890625 19.82421875 C1.9260376 20.88729248 1.97316895 21.95036621 2.02172852 23.0456543 C2.0011179 25.84800382 1.6525411 28.2821773 1 31 C1.99 31.33 2.98 31.66 4 32 C3.34 32.99 2.68 33.98 2 35 C1.34 35 0.68 35 0 35 C0 23.45 0 11.9 0 0 Z " fill="#467C91" transform="translate(776,254)" />
<path d="M0 0 C0.66 0 1.32 0 2 0 C-0.05388699 6.46930452 -2.43234262 12.74422678 -5.0625 19 C-5.41376953 19.85722656 -5.76503906 20.71445313 -6.12695312 21.59765625 C-6.46791016 22.41105469 -6.80886719 23.22445312 -7.16015625 24.0625 C-7.46574463 24.79597656 -7.77133301 25.52945313 -8.08618164 26.28515625 C-8.53852173 27.13400391 -8.53852173 27.13400391 -9 28 C-9.66 28.33 -10.32 28.66 -11 29 C-9.25722321 22.46812928 -6.98466231 16.50878568 -3.98828125 10.4453125 C-2.75019472 7.82148322 -2.75019472 7.82148322 -3 4 C-1.625 1.75 -1.625 1.75 0 0 Z " fill="#72D8CF" transform="translate(696,227)" />
<path d="M0 0 C0.99 0.33 1.98 0.66 3 1 C0.44052949 2.94152771 -2.12310313 4.87748513 -4.6875 6.8125 C-5.7693457 7.63331055 -5.7693457 7.63331055 -6.87304688 8.47070312 C-10.48224184 11.18995961 -14.05219859 13.78082169 -18 16 C-18 15.01 -18 14.02 -18 13 C-16.6706543 11.6496582 -16.6706543 11.6496582 -14.82421875 10.30078125 C-13.82938477 9.57084961 -13.82938477 9.57084961 -12.81445312 8.82617188 C-12.11255859 8.32666016 -11.41066406 7.82714844 -10.6875 7.3125 C-9.65206055 6.54583008 -9.65206055 6.54583008 -8.59570312 5.76367188 C-4.74817782 2.97932747 -4.74817782 2.97932747 -3 2 C-2.01 2 -1.02 2 0 2 C0 1.34 0 0.68 0 0 Z " fill="#DCF7F8" transform="translate(633,196)" />
<path d="M0 0 C4.71552692 1.7683226 8.92361098 4.15696192 13.28125 6.66015625 C15.94283079 7.97182609 18.05990659 8.67496455 21 9 C23.75256244 8.15020525 23.75256244 8.15020525 26 7 C22.60639363 10.75720706 22.60639363 10.75720706 20.11401367 11.75512695 C18 12 18 12 16.0012207 11.22729492 C15.31632568 10.81584229 14.63143066 10.40438965 13.92578125 9.98046875 C13.17619141 9.53509766 12.42660156 9.08972656 11.65429688 8.63085938 C10.88150391 8.15455078 10.10871094 7.67824219 9.3125 7.1875 C8.52810547 6.72279297 7.74371094 6.25808594 6.93554688 5.77929688 C1.14568356 2.29136712 1.14568356 2.29136712 0 0 Z " fill="#1E2D4D" transform="translate(676,441)" />
<path d="M0 0 C0.66 0.66 1.32 1.32 2 2 C-2.39522136 6.00780063 -6.66549703 9.33274851 -12 12 C-12.99 12 -13.98 12 -15 12 C-15 11.34 -15 10.68 -15 10 C-10.05 6.7 -5.1 3.4 0 0 Z " fill="#2D537B" transform="translate(702,383)" />
<path d="M0 0 C0.99 0.33 1.98 0.66 3 1 C-6.9 6.94 -6.9 6.94 -17 13 C-17 12.01 -17 11.02 -17 10 C-15.04109119 8.60699818 -13.0360882 7.27754554 -11 6 C-10.01 6 -9.02 6 -8 6 C-8 5.34 -8 4.68 -8 4 C-6.73581754 3.30034557 -5.46334598 2.61565237 -4.1875 1.9375 C-3.47980469 1.55464844 -2.77210938 1.17179688 -2.04296875 0.77734375 C-1.36878906 0.52082031 -0.69460938 0.26429688 0 0 Z " fill="#DEF3F8" transform="translate(756,187)" />
<path d="M0 0 C0.66 0 1.32 0 2 0 C1 3 1 3 -0.71826172 4.36621094 C-3.09771539 5.83833043 -5.47829364 7.30606751 -7.875 8.75 C-8.70386719 9.26949219 -9.53273438 9.78898438 -10.38671875 10.32421875 C-11.18464844 10.81019531 -11.98257813 11.29617187 -12.8046875 11.796875 C-13.53671387 12.24385742 -14.26874023 12.69083984 -15.02294922 13.15136719 C-15.67537598 13.43141602 -16.32780273 13.71146484 -17 14 C-17.99 13.67 -18.98 13.34 -20 13 C-17.33862542 11.32431971 -14.67265298 9.65755882 -12 8 C-11.113125 7.44957031 -10.22625 6.89914063 -9.3125 6.33203125 C-8.425625 5.78933594 -7.53875 5.24664062 -6.625 4.6875 C-5.79226563 4.17574219 -4.95953125 3.66398438 -4.1015625 3.13671875 C-2 2 -2 2 0 2 C0 1.34 0 0.68 0 0 Z " fill="#E5FBFA" transform="translate(777,173)" />
<path d="M0 0 C0.66 0.33 1.32 0.66 2 1 C-2.05538952 5.35212534 -5.67076938 8.33538469 -11 11 C-11.66 11 -12.32 11 -13 11 C-13.33 11.99 -13.66 12.98 -14 14 C-15.65 14.33 -17.3 14.66 -19 15 C-15.22180665 10.99063612 -11.20415407 7.82729557 -6.6875 4.6875 C-6.04232422 4.23310547 -5.39714844 3.77871094 -4.73242188 3.31054688 C-3.15802858 2.20264048 -1.57944354 1.10069475 0 0 Z " fill="#DBF4F7" transform="translate(660,240)" />
<path d="M0 0 C0.99 0.33 1.98 0.66 3 1 C1.43902526 2.1063219 -0.12385327 3.20995785 -1.6875 4.3125 C-2.55761719 4.92738281 -3.42773438 5.54226562 -4.32421875 6.17578125 C-6.83250952 7.88581306 -9.38102199 9.46636423 -12 11 C-12.66 10.67 -13.32 10.34 -14 10 C-10.81842143 6.54571469 -8.39787018 4.57872263 -4 3 C-2.63634717 2.04175747 -1.29205831 1.05278825 0 0 Z " fill="#1B4463" transform="translate(785,234)" />
<path d="M0 0 C-0.33 0.99 -0.66 1.98 -1 3 C-3.00390625 4.17578125 -3.00390625 4.17578125 -5.5625 5.3125 C-10.54912302 7.66589907 -14.73180833 10.53060398 -19 14 C-19.33 13.01 -19.66 12.02 -20 11 C-17.0460832 9.15947576 -14.08617092 7.32882635 -11.125 5.5 C-10.28324219 4.97535156 -9.44148437 4.45070312 -8.57421875 3.91015625 C-7.76855469 3.41386719 -6.96289062 2.91757813 -6.1328125 2.40625 C-5.01737061 1.71499023 -5.01737061 1.71499023 -3.87939453 1.00976562 C-2 0 -2 0 0 0 Z " fill="#528D9C" transform="translate(796,242)" />
<path d="M0 0 C0.66 0.33 1.32 0.66 2 1 C0.36739286 2.37482707 -1.30225062 3.70647667 -3 5 C-3.66 5 -4.32 5 -5 5 C-5 5.66 -5 6.32 -5 7 C-6.62170379 8.00533667 -8.24747237 9.00411907 -9.875 10 C-11.23238281 10.8353125 -11.23238281 10.8353125 -12.6171875 11.6875 C-15 13 -15 13 -17 13 C-16 10 -16 10 -14.41772461 8.74145508 C-13.75264893 8.33822021 -13.08757324 7.93498535 -12.40234375 7.51953125 C-11.68369141 7.07802734 -10.96503906 6.63652344 -10.22460938 6.18164062 C-9.46986328 5.72982422 -8.71511719 5.27800781 -7.9375 4.8125 C-7.17888672 4.34908203 -6.42027344 3.88566406 -5.63867188 3.40820312 C-3.76366817 2.26433294 -1.88415078 1.12871745 0 0 Z " fill="#DDEFF4" transform="translate(795,277)" />
<path d="M0 0 C0.66 0.33 1.32 0.66 2 1 C0.1458722 3.4976567 -1.723853 5.87310854 -4 8 C-6.875 8.4375 -6.875 8.4375 -9 8 C-9.33 8.66 -9.66 9.32 -10 10 C-10.33 9.01 -10.66 8.02 -11 7 C-7.37 4.69 -3.74 2.38 0 0 Z " fill="#293862" transform="translate(654,415)" />
<path d="M0 0 C0.33 0.99 0.66 1.98 1 3 C0.01 4.485 0.01 4.485 -1 6 C0.98 6.66 2.96 7.32 5 8 C5 8.99 5 9.98 5 11 C1.37 9.02 -2.26 7.04 -6 5 C-6 4.34 -6 3.68 -6 3 C-4.02 2.01 -2.04 1.02 0 0 Z " fill="#355E85" transform="translate(720,211)" />
<path d="M0 0 C0.99 0.33 1.98 0.66 3 1 C-2.28 4.63 -7.56 8.26 -13 12 C-13.33 11.01 -13.66 10.02 -14 9 C-13.01 9 -12.02 9 -11 9 C-10.67 8.01 -10.34 7.02 -10 6 C-8.35 5.67 -6.7 5.34 -5 5 C-5 4.34 -5 3.68 -5 3 C-4.01 3 -3.02 3 -2 3 C-2 2.34 -2 1.68 -2 1 C-1.34 0.67 -0.68 0.34 0 0 Z " fill="#D3F6F7" transform="translate(755,346)" />
<path d="M0 0 C2.1875 0.375 2.1875 0.375 4 1 C0.59287819 4.97497544 -3.32760855 6.86793788 -8 9 C-8 8.01 -8 7.02 -8 6 C-7.01 6 -6.02 6 -5 6 C-4.731875 5.38125 -4.46375 4.7625 -4.1875 4.125 C-3 2 -3 2 0 0 Z " fill="#2D7491" transform="translate(838,247)" />
<path d="M0 0 C3.49403583 0.72376457 6.51998905 2.06285206 9.75 3.5625 C11.22726562 4.24505859 11.22726562 4.24505859 12.734375 4.94140625 C13.48203125 5.29074219 14.2296875 5.64007813 15 6 C15 6.66 15 7.32 15 8 C15.66 8 16.32 8 17 8 C17 8.66 17 9.32 17 10 C13.25912846 8.58010715 9.76931806 6.90233408 6.25 5 C5.28578125 4.484375 4.3215625 3.96875 3.328125 3.4375 C1 2 1 2 0 0 Z " fill="#DFFBF7" transform="translate(714,225)" />
<path d="M0 0 C0.99 0.33 1.98 0.66 3 1 C0.73784237 2.70035362 -1.53338233 4.38515921 -3.8125 6.0625 C-4.77639648 6.79049805 -4.77639648 6.79049805 -5.75976562 7.53320312 C-7.45092901 8.76871627 -9.22220746 9.89276018 -11 11 C-11.99 10.67 -12.98 10.34 -14 10 C-11.73784237 8.29964638 -9.46661767 6.61484079 -7.1875 4.9375 C-6.54490234 4.45216797 -5.90230469 3.96683594 -5.24023438 3.46679688 C-3.54907099 2.23128373 -1.77779254 1.10723982 0 0 Z " fill="#45909C" transform="translate(628,202)" />
<path d="M0 0 C4.68937782 1.41876081 4.68937782 1.41876081 6.578125 2.3671875 C6.908125 3.3571875 7.238125 4.3471875 7.578125 5.3671875 C4.24302862 4.30971792 1.13085114 3.15897381 -2.046875 1.6796875 C-5.1736812 0.16378414 -5.1736812 0.16378414 -7.671875 0.6171875 C-8.538125 0.9884375 -8.538125 0.9884375 -9.421875 1.3671875 C-10.411875 1.6971875 -11.401875 2.0271875 -12.421875 2.3671875 C-12.421875 1.3771875 -12.421875 0.3871875 -12.421875 -0.6328125 C-8.02245386 -2.09928621 -4.43179824 -1.15798599 0 0 Z " fill="#DAF9F6" transform="translate(648.421875,193.6328125)" />
<path d="M0 0 C0.66 0.33 1.32 0.66 2 1 C-2.68140234 5.43821261 -6.78264527 9.04945734 -13 11 C-13.99 10.67 -14.98 10.34 -16 10 C-10.72 6.7 -5.44 3.4 0 0 Z " fill="#95D1C1" transform="translate(816,151)" />
<path d="M0 0 C0.66 0.66 1.32 1.32 2 2 C-1.63 7.28 -5.26 12.56 -9 18 C-9.33 16.68 -9.66 15.36 -10 14 C-9.360625 13.401875 -8.72125 12.80375 -8.0625 12.1875 C-5.79689611 10.09189663 -5.79689611 10.09189663 -5 7 C-4.34 7 -3.68 7 -3 7 C-2.690625 6.030625 -2.38125 5.06125 -2.0625 4.0625 C-1 1 -1 1 0 0 Z " fill="#77E2CE" transform="translate(836,143)" />
<path d="M0 0 C0.70125 0.144375 1.4025 0.28875 2.125 0.4375 C1.125 3.4375 1.125 3.4375 -0.72265625 4.82421875 C-1.45355469 5.25347656 -2.18445313 5.68273437 -2.9375 6.125 C-3.67097656 6.56199219 -4.40445313 6.99898438 -5.16015625 7.44921875 C-5.72605469 7.77535156 -6.29195312 8.10148437 -6.875 8.4375 C-7.535 8.1075 -8.195 7.7775 -8.875 7.4375 C-3.7809081 0.57535558 -3.7809081 0.57535558 0 0 Z " fill="#21516F" transform="translate(787.875,278.5625)" />
<path d="M0 0 C0.66 0.33 1.32 0.66 2 1 C0.0226631 2.33611905 -1.95672713 3.66899258 -3.9375 5 C-4.50146484 5.3815625 -5.06542969 5.763125 -5.64648438 6.15625 C-9.88671875 9 -9.88671875 9 -11 9 C-11 6.36 -11 3.72 -11 1 C-10.01 2.32 -9.02 3.64 -8 5 C-6.35 4.34 -4.7 3.68 -3 3 C-3 2.34 -3 1.68 -3 1 C-2.01 0.67 -1.02 0.34 0 0 Z " fill="#222F55" transform="translate(653,403)" />
<path d="M0 0 C-2.97 1.98 -5.94 3.96 -9 6 C-9.33 4.35 -9.66 2.7 -10 1 C-5.8922935 -0.58706842 -4.40767604 -1.10191901 0 0 Z " fill="#3C8F93" transform="translate(692,218)" />
<path d="M0 0 C4.95 0 9.9 0 15 0 C12.75 5.625 12.75 5.625 10 8 C10 6.02 10 4.04 10 2 C6.7 1.67 3.4 1.34 0 1 C0 0.67 0 0.34 0 0 Z " fill="#53A1AF" transform="translate(794,186)" />
<path d="M0 0 C0.33 0.66 0.66 1.32 1 2 C0.525625 2.7425 0.05125 3.485 -0.4375 4.25 C-1.78695986 6.62504935 -2.6306579 8.32226974 -3 11 C-2.67 11.66 -2.34 12.32 -2 13 C-4.97 12.505 -4.97 12.505 -8 12 C-6.85573734 10.186508 -5.70954608 8.37423275 -4.5625 6.5625 C-3.60537109 5.04849609 -3.60537109 5.04849609 -2.62890625 3.50390625 C-1 1 -1 1 0 0 Z " fill="#2FA8AA" transform="translate(817,175)" />
<path d="M0 0 C0.99 0.33 1.98 0.66 3 1 C-4.92 5.95 -4.92 5.95 -13 11 C-13 10.01 -13 9.02 -13 8 C-10.90320896 6.63304778 -8.7989062 5.28153009 -6.6875 3.9375 C-6.09259766 3.54755859 -5.49769531 3.15761719 -4.88476562 2.75585938 C-3.30390365 1.75788505 -1.65405288 0.87131304 0 0 Z " fill="#DFFBF2" transform="translate(839,135)" />
<path d="M0 0 C0 0.99 0 1.98 0 3 C-2.265625 5.0078125 -2.265625 5.0078125 -5.25 7.125 C-6.22453125 7.82882812 -7.1990625 8.53265625 -8.203125 9.2578125 C-10.60601767 10.75458643 -12.24395741 11.56690759 -15 12 C-10.58990583 7.14889642 -5.41995647 3.651893 0 0 Z " fill="#87C9C5" transform="translate(662,250)" />
<path d="M0 0 C0.66 0.33 1.32 0.66 2 1 C-3.445 4.96 -3.445 4.96 -9 9 C-9.66 8.67 -10.32 8.34 -11 8 C-10.67 7.34 -10.34 6.68 -10 6 C-9.01 6 -8.02 6 -7 6 C-6.773125 5.38125 -6.54625 4.7625 -6.3125 4.125 C-5 2 -5 2 -2.5 0.6875 C-1.675 0.460625 -0.85 0.23375 0 0 Z " fill="#2B6B81" transform="translate(648,247)" />
<path d="M0 0 C0 0.99 0 1.98 0 3 C-1.96875 5.48046875 -1.96875 5.48046875 -4.5 8.1875 C-5.3353125 9.08855469 -6.170625 9.98960937 -7.03125 10.91796875 C-7.6809375 11.60503906 -8.330625 12.29210937 -9 13 C-9 9.30581799 -7.71820705 7.22163822 -6 4 C-5.01 4 -4.02 4 -3 4 C-3 3.34 -3 2.68 -3 2 C-2.01 1.34 -1.02 0.68 0 0 Z " fill="#4BB6BC" transform="translate(838,216)" />
<path d="M0 0 C0.99 0 1.98 0 3 0 C3 0.66 3 1.32 3 2 C-0.63 4.31 -4.26 6.62 -8 9 C-8.66 8.34 -9.32 7.68 -10 7 C-8.71186658 6.16121545 -7.41936744 5.32913217 -6.125 4.5 C-5.40570312 4.0359375 -4.68640625 3.571875 -3.9453125 3.09375 C-2 2 -2 2 0 2 C0 1.34 0 0.68 0 0 Z " fill="#E0F0F7" transform="translate(707,377)" />
<path d="M0 0 C0.99 0.33 1.98 0.66 3 1 C-0.3 3.64 -3.6 6.28 -7 9 C-7.33 8.01 -7.66 7.02 -8 6 C-6.69855198 4.95884159 -5.36161311 3.96113866 -4 3 C-3.34 3 -2.68 3 -2 3 C-2 2.34 -2 1.68 -2 1 C-1.34 0.67 -0.68 0.34 0 0 Z " fill="#D9F9F2" transform="translate(692,226)" />
<path d="M0 0 C0 0.66 0 1.32 0 2 C-4.95 4.97 -4.95 4.97 -10 8 C-10.66 7.34 -11.32 6.68 -12 6 C-10.37829621 4.99466333 -8.75252763 3.99588093 -7.125 3 C-6.22007812 2.443125 -5.31515625 1.88625 -4.3828125 1.3125 C-2 0 -2 0 0 0 Z " fill="#E2F5F7" transform="translate(835,207)" />
<path d="M0 0 C3.96 1.98 3.96 1.98 8 4 C7.01 5.485 7.01 5.485 6 7 C3.525 6.01 3.525 6.01 1 5 C0.67 3.35 0.34 1.7 0 0 Z " fill="#7ECCC7" transform="translate(710,224)" />
<path d="M0 0 C1.32 0.66 2.64 1.32 4 2 C-0.95 4.97 -0.95 4.97 -6 8 C-5.67 6.68 -5.34 5.36 -5 4 C-3.68 3.67 -2.36 3.34 -1 3 C-0.67 2.01 -0.34 1.02 0 0 Z " fill="#24637A" transform="translate(820,211)" />
<path d="M0 0 C0.99 0.33 1.98 0.66 3 1 C-0.3 3.31 -3.6 5.62 -7 8 C-7.33 7.01 -7.66 6.02 -8 5 C-6.73760288 4.13341385 -5.46472499 3.28207941 -4.1875 2.4375 C-3.47980469 1.96183594 -2.77210938 1.48617188 -2.04296875 0.99609375 C-1.36878906 0.66738281 -0.69460938 0.33867187 0 0 Z " fill="#2A5978" transform="translate(798,273)" />
<path d="M0 0 C0.33 0.66 0.66 1.32 1 2 C4.3 1.34 7.6 0.68 11 0 C11 0.66 11 1.32 11 2 C4.07 3.485 4.07 3.485 -3 5 C-2.01 3.35 -1.02 1.7 0 0 Z " fill="#4EB6C9" transform="translate(614,232)" />
<path d="M0 0 C0.99 0.33 1.98 0.66 3 1 C0.03 2.98 -2.94 4.96 -6 7 C-5.67 5.68 -5.34 4.36 -5 3 C-2.625 1.1875 -2.625 1.1875 0 0 Z " fill="#348291" transform="translate(668,232)" />
<path d="M0 0 C0.99 0.99 1.98 1.98 3 3 C0.25 5.0625 0.25 5.0625 -3 7 C-5.375 6.75 -5.375 6.75 -7 6 C-6.030625 5.38125 -5.06125 4.7625 -4.0625 4.125 C-0.97164638 2.34321154 -0.97164638 2.34321154 0 0 Z " fill="#284D72" transform="translate(690,376)" />
<path d="M0 0 C0.66 0 1.32 0 2 0 C1 3 1 3 -0.77734375 4.38671875 C-1.49019531 4.81597656 -2.20304688 5.24523437 -2.9375 5.6875 C-3.64777344 6.12449219 -4.35804688 6.56148438 -5.08984375 7.01171875 C-7 8 -7 8 -9 8 C-8.67 7.01 -8.34 6.02 -8 5 C-6.02583732 3.94991347 -4.02417134 2.95012124 -2 2 C-1.34 1.34 -0.68 0.68 0 0 Z " fill="#E1FAFB" transform="translate(739,356)" />
<path d="M0 0 C0.99 0.33 1.98 0.66 3 1 C-1.455 4.465 -1.455 4.465 -6 8 C-6.33 7.01 -6.66 6.02 -7 5 C-6.01 4.67 -5.02 4.34 -4 4 C-4 3.34 -4 2.68 -4 2 C-2.1875 0.9375 -2.1875 0.9375 0 0 Z " fill="#E2F5F9" transform="translate(579,235)" />
<path d="M0 0 C-0.66 1.65 -1.32 3.3 -2 5 C-4.31 5 -6.62 5 -9 5 C-2.87096774 0 -2.87096774 0 0 0 Z " fill="#7CC0C6" transform="translate(769,182)" />
<path d="M0 0 C0.66 0.33 1.32 0.66 2 1 C-1 4 -4 7 -7 10 C-6.8125 8.3125 -6.8125 8.3125 -6 6 C-3.5 3.3125 -3.5 3.3125 -1 1 C-0.67 0.67 -0.34 0.34 0 0 Z " fill="#252E3C" transform="translate(585,513)" />
<path d="M0 0 C0.99 0.33 1.98 0.66 3 1 C-0.3 3.31 -3.6 5.62 -7 8 C-7 7.01 -7 6.02 -7 5 C-6.030625 4.360625 -5.06125 3.72125 -4.0625 3.0625 C-1.23963731 1.3034741 -1.23963731 1.3034741 0 0 Z " fill="#E6FBFA" transform="translate(649,257)" />
<path d="M0 0 C1.65 0 3.3 0 5 0 C2.45543849 2.96865509 -0.48994665 4.3619751 -4 6 C-4 5.01 -4 4.02 -4 3 C-3.01 3 -2.02 3 -1 3 C-0.67 2.01 -0.34 1.02 0 0 Z " fill="#2A6A7B" transform="translate(837,201)" />
<path d="M0 0 C0.66 0.33 1.32 0.66 2 1 C0.375 2.9375 0.375 2.9375 -2 5 C-5.25 5.75 -5.25 5.75 -8 6 C-5.38485683 3.87961365 -2.80362384 1.86908256 0 0 Z " fill="#DAE9F0" transform="translate(751,416)" />
<path d="M0 0 C0.66 0 1.32 0 2 0 C1.95875 0.78375 1.9175 1.5675 1.875 2.375 C1.91625 3.24125 1.9575 4.1075 2 5 C2.66 5.66 3.32 6.32 4 7 C3.01 8.485 3.01 8.485 2 10 C1.34 10 0.68 10 0 10 C0 6.7 0 3.4 0 0 Z " fill="#245778" transform="translate(642,326)" />
<path d="M0 0 C0.66 0.33 1.32 0.66 2 1 C0.73760288 1.86658615 -0.53527501 2.71792059 -1.8125 3.5625 C-2.87404297 4.27599609 -2.87404297 4.27599609 -3.95703125 5.00390625 C-4.63121094 5.33261719 -5.30539062 5.66132813 -6 6 C-6.99 5.67 -7.98 5.34 -9 5 C-6.03 3.35 -3.06 1.7 0 0 Z " fill="#E4FAFA" transform="translate(801,236)" />
<path d="M0 0 C0.66 0 1.32 0 2 0 C0.50902342 3.7952131 -1.75700849 5.61042731 -5 8 C-3.82744291 4.66272214 -2.81131596 2.22562513 0 0 Z " fill="#EDF1F3" transform="translate(740,525)" />
<path d="M0 0 C1.13757948 4.55031791 0.4283779 6.63084406 -1 11 C-1.99 11 -2.98 11 -4 11 C-2.68 7.37 -1.36 3.74 0 0 Z " fill="#349AA6" transform="translate(683,262)" />
<path d="M0 0 C0.66 1.32 1.32 2.64 2 4 C0.35 4 -1.3 4 -3 4 C-3.33 4.99 -3.66 5.98 -4 7 C-4.33 6.34 -4.66 5.68 -5 5 C-5.66 4.67 -6.32 4.34 -7 4 C-6.67 3.67 -6.34 3.34 -6 3 C-4.33382885 2.95936168 -2.66611905 2.957279 -1 3 C-0.67 2.01 -0.34 1.02 0 0 Z " fill="#20628E" transform="translate(603,250)" />
<path d="M0 0 C3.96 1.98 3.96 1.98 8 4 C8 4.66 8 5.32 8 6 C4.22454612 4.90931332 1.52956528 4.0916909 -1 1 C-0.67 0.67 -0.34 0.34 0 0 Z " fill="#DDFAF2" transform="translate(745,241)" />
<path d="M0 0 C0.66 0.33 1.32 0.66 2 1 C-0.8125 3.0625 -0.8125 3.0625 -4 5 C-4.99 4.67 -5.98 4.34 -7 4 C-7 3.34 -7 2.68 -7 2 C-4 1 -4 1 -2 1 C-1.34 0.67 -0.68 0.34 0 0 Z " fill="#1A3552" transform="translate(700,448)" />
<path d="M0 0 C0.99 0.33 1.98 0.66 3 1 C0.69 2.65 -1.62 4.3 -4 6 C-4 5.01 -4 4.02 -4 3 C-2 1.3125 -2 1.3125 0 0 Z " fill="#204B66" transform="translate(785,234)" />
<path d="M0 0 C0.99 0.33 1.98 0.66 3 1 C2.34 1 1.68 1 1 1 C0.34 2.32 -0.32 3.64 -1 5 C-1.99 5 -2.98 5 -4 5 C-3.125 3.0625 -3.125 3.0625 -2 1 C-1.34 0.67 -0.68 0.34 0 0 Z " fill="#27778F" transform="translate(728,366)" />
<path d="M0 0 C1.32 0.33 2.64 0.66 4 1 C0.04 3.475 0.04 3.475 -4 6 C-4 5.01 -4 4.02 -4 3 C-3.01 3 -2.02 3 -1 3 C-0.67 2.01 -0.34 1.02 0 0 Z " fill="#CEF1F3" transform="translate(745,352)" />
<path d="M0 0 C0.66 0.33 1.32 0.66 2 1 C-0.58387184 3.2885722 -2.44686746 4.85249799 -5.8125 5.75 C-6.8953125 5.87375 -6.8953125 5.87375 -8 6 C-5.38485683 3.87961365 -2.80362384 1.86908256 0 0 Z " fill="#D9F0F5" transform="translate(834,253)" />
<path d="M0 0 C0.66 0.33 1.32 0.66 2 1 C-0.11770166 3.32947183 -2.03335588 4.88750845 -5 6 C-5.99 5.67 -6.98 5.34 -8 5 C-5.36 3.35 -2.72 1.7 0 0 Z " fill="#DCF1F5" transform="translate(818,216)" />
<path d="M0 0 C1.22589844 0.01353516 1.22589844 0.01353516 2.4765625 0.02734375 C3.41628906 0.04474609 3.41628906 0.04474609 4.375 0.0625 C4.375 0.3925 4.375 0.7225 4.375 1.0625 C1.075 1.7225 -2.225 2.3825 -5.625 3.0625 C-5.955 2.4025 -6.285 1.7425 -6.625 1.0625 C-4.21954362 -0.14022819 -2.67503047 -0.03821472 0 0 Z " fill="#3A7794" transform="translate(761.625,187.9375)" />
</svg>
